<svg width="36" height="35" viewBox="0 0 36 35" fill="none" xmlns="http://www.w3.org/2000/svg">
<path d="M23.2764 26.0523H12.8424C12.2574 23.9392 11.057 22.3573 9.89599 20.8281C9.08415 19.7583 8.24472 18.6517 7.62092 17.3713C7.29347 16.7052 7.03917 16.0053 6.86249 15.2839C6.66393 14.4595 6.56227 13.6146 6.55957 12.7664C6.56591 11.3542 6.80637 9.95288 7.2711 8.61989C7.74451 7.23918 8.46298 5.95584 9.39179 4.83189C10.3503 3.66888 11.5473 2.72675 12.9012 2.06958C14.4257 1.34792 16.0934 0.982446 17.7789 1.00065C19.4844 0.984683 21.1748 1.32198 22.7444 1.99145C24.1479 2.59982 25.409 3.4961 26.4468 4.62269C27.4521 5.71551 28.2376 6.99286 28.7602 8.38458C29.2908 9.78402 29.5616 11.2691 29.5593 12.7664C29.5655 13.6014 29.4755 14.4343 29.2911 15.2486C29.1314 15.94 28.8929 16.6107 28.5805 17.2475C27.9904 18.4569 27.2146 19.4374 26.3932 20.4757C25.1707 22.0209 23.907 23.6183 23.2764 26.0519V26.0523ZM17.7565 5.20659C17.6704 5.20682 17.5844 5.21224 17.4989 5.2228C14.0819 5.63939 11.836 7.68381 10.8229 11.3027C10.6564 12.0701 10.6679 12.6088 10.8584 12.9506C10.9383 13.0768 11.044 13.1847 11.1684 13.267C11.2929 13.3492 11.4333 13.4041 11.5805 13.428C11.7021 13.4559 11.8264 13.471 11.9511 13.473C12.0615 13.477 12.1715 13.458 12.2742 13.4173C12.3769 13.3767 12.4701 13.3151 12.548 13.2366L12.5705 13.2152C12.6532 13.1466 12.7204 13.061 12.7673 12.9642C12.8142 12.8673 12.8398 12.7615 12.8424 12.6538C12.8845 11.9967 13.0227 11.3494 13.2526 10.7328C13.4805 10.1116 13.8112 9.53352 14.2307 9.02274C14.6769 8.47928 15.2352 8.03933 15.8671 7.73319C16.499 7.42706 17.1895 7.26202 17.8911 7.24944C18.0296 7.25542 18.1678 7.23323 18.2975 7.18421C18.4271 7.13519 18.5456 7.06035 18.6457 6.96419C18.7458 6.86803 18.8255 6.75254 18.8799 6.62467C18.9344 6.4968 18.9625 6.35919 18.9626 6.22013C18.9541 5.73194 18.5728 5.20636 17.7565 5.20659Z" fill="#A678EC"/>
<path d="M12.8985 28.1948H23.2493V31.1515C23.2493 31.1515 22.0315 33.0831 21.5406 33.8124C21.0496 34.5418 20.7552 34.5418 19.8128 34.5418H16.1988C14.9808 34.5418 14.7455 34.1279 14.3723 33.6352C13.9991 33.1425 12.8985 31.1512 12.8985 31.1512V28.1948Z" fill="#A678EC"/>
</svg>
