<svg width="14" height="14" viewBox="0 0 14 14" fill="none" xmlns="http://www.w3.org/2000/svg">
<path d="M9.81563 13.2969C9.18 13.2969 8.51062 13.145 7.81875 12.8525C7.14375 12.5656 6.46313 12.1719 5.79938 11.6937C5.13563 11.21 4.5 10.6644 3.90375 10.0738C3.3075 9.47188 2.7675 8.83625 2.28938 8.18375C1.80563 7.50875 1.4175 6.83938 1.14187 6.18125C0.849375 5.48938 0.703125 4.81437 0.703125 4.17875C0.703125 3.74 0.781875 3.32375 0.93375 2.93562C1.09687 2.53062 1.34438 2.165 1.6875 1.84438C2.12063 1.4225 2.61563 1.20312 3.14438 1.20312C3.36375 1.20312 3.58875 1.25375 3.78 1.34375C3.99937 1.445 4.185 1.59687 4.32 1.79937L5.625 3.63875C5.74312 3.80187 5.83312 3.95937 5.895 4.11687C5.96812 4.28562 6.0075 4.45438 6.0075 4.6175C6.0075 4.83125 5.94562 5.03938 5.8275 5.23625C5.72412 5.41196 5.59733 5.57281 5.45062 5.71438L5.06813 6.11375C5.07375 6.13062 5.07937 6.14188 5.085 6.15313C5.1525 6.27125 5.2875 6.47375 5.54625 6.7775C5.81625 7.0925 6.08063 7.37375 6.33938 7.64375C6.67688 7.97563 6.94688 8.22875 7.20563 8.4425C7.52625 8.7125 7.73438 8.8475 7.85813 8.90937L7.84687 8.9375L8.2575 8.5325C8.43188 8.35812 8.60063 8.22875 8.76375 8.14437C9.07312 7.95312 9.46688 7.91937 9.86063 8.0825C10.0069 8.14437 10.1644 8.22875 10.3331 8.34687L12.2006 9.67437C12.4031 9.815 12.5606 9.995 12.6506 10.2087C12.735 10.4225 12.7744 10.6194 12.7744 10.8162C12.7744 11.0863 12.7125 11.3562 12.5944 11.6094C12.4762 11.8625 12.33 12.0819 12.1444 12.2844C11.8238 12.6388 11.475 12.8919 11.07 13.055C10.6819 13.2125 10.26 13.2969 9.81563 13.2969ZM3.14438 2.04688C2.835 2.04688 2.54813 2.18188 2.2725 2.45187C2.01937 2.69375 1.83375 2.95813 1.72125 3.245C1.60312 3.5375 1.54688 3.84687 1.54688 4.17875C1.54688 4.70187 1.67063 5.27 1.91813 5.855C2.17125 6.45125 2.52562 7.07 2.97563 7.68875C3.42563 8.3075 3.9375 8.90938 4.5 9.4775C5.0625 10.0344 5.67 10.5519 6.29437 11.0075C6.90188 11.4519 7.52625 11.8119 8.145 12.0706C9.10687 12.4812 10.0069 12.5769 10.7494 12.2675C11.0363 12.1494 11.2894 11.9694 11.52 11.7106C11.6494 11.57 11.7506 11.4181 11.835 11.2381C11.9025 11.0975 11.9362 10.9513 11.9362 10.805C11.9362 10.715 11.9194 10.625 11.8744 10.5238C11.8631 10.4956 11.8237 10.4281 11.7169 10.355L9.84937 9.0275C9.73688 8.94875 9.63562 8.8925 9.54 8.85313C9.39375 8.79688 9.29812 8.79125 9.17437 8.87C9.06187 8.92625 8.96062 9.01062 8.84812 9.12313L8.42063 9.545C8.20125 9.75875 7.86375 9.80937 7.605 9.71375L7.45312 9.64625C7.2225 9.5225 6.9525 9.33125 6.65438 9.07812C6.37875 8.8475 6.0975 8.58312 5.7375 8.22875C5.45625 7.94187 5.18625 7.64375 4.89937 7.3175C4.635 7.00812 4.44375 6.74375 4.32562 6.52437L4.2525 6.35563C4.22448 6.26636 4.20932 6.17355 4.2075 6.08C4.2075 5.8775 4.28063 5.6975 4.42125 5.55687L4.84312 5.11812C4.95562 5.00563 5.04 4.89875 5.09625 4.80313C5.14125 4.73 5.15812 4.66812 5.15812 4.61188C5.15812 4.56687 5.14125 4.49937 5.11312 4.43187C5.07938 4.33625 5.0175 4.24062 4.93875 4.12812L3.63375 2.28313C3.58109 2.20755 3.50925 2.14736 3.42563 2.10875C3.33563 2.06937 3.24 2.04688 3.14438 2.04688ZM7.84687 8.94313L7.75688 9.32562L7.90875 8.93187C7.88625 8.92625 7.86375 8.93188 7.84687 8.94313Z" fill="#8F92A1"/>
</svg>
