<svg width="24" height="24" viewBox="0 0 24 24" fill="none" xmlns="http://www.w3.org/2000/svg">
<path fill-rule="evenodd" clip-rule="evenodd" d="M2.04308 2.54967C2.18895 2.12865 2.66192 1.90111 3.09949 2.04146L3.3945 2.13606C3.4092 2.14077 3.42384 2.14548 3.43845 2.15016C4.13595 2.37383 4.72539 2.56285 5.18889 2.77031C5.68157 2.99084 6.10905 3.26414 6.43321 3.69685C6.75736 4.12957 6.89166 4.60619 6.9533 5.12563C7.01129 5.6143 7.01127 6.2121 7.01124 6.91949V9.76789C7.01124 11.3058 7.01302 12.3784 7.1261 13.1876C7.23595 13.9738 7.43689 14.3902 7.74508 14.6867C8.05328 14.9832 8.48598 15.1766 9.30307 15.2822C10.1442 15.3911 11.259 15.3928 12.8574 15.3928H20.6523C21.1136 15.3928 21.4875 15.7525 21.4875 16.1964C21.4875 16.6401 21.1136 16.9999 20.6523 16.9999H12.7963C11.2734 16.9999 10.0459 16.9999 9.08051 16.875C8.07818 16.7453 7.23425 16.468 6.56397 15.8231C5.89371 15.1782 5.60541 14.3662 5.47066 13.4018C5.34086 12.4729 5.34088 11.2919 5.3409 9.82669V6.96407C5.3409 6.20016 5.33964 5.69471 5.29374 5.30792C5.25029 4.94167 5.1744 4.76501 5.07816 4.63654C4.98193 4.50808 4.83173 4.38294 4.48435 4.22746C4.11749 4.06326 3.6195 3.90226 2.86628 3.6607L2.57129 3.56608C2.13371 3.42575 1.89723 2.97068 2.04308 2.54967Z" fill="white"/>
<path d="M6.61523 7C6.62053 7.25912 6.62053 7.53957 6.62052 7.8414L6.62051 10.5C6.62051 11.9354 6.62221 12.9365 6.73059 13.6919C6.7464 13.8021 6.76419 13.9046 6.784 14H17.5829C18.6067 14 19.1187 14 19.5196 13.7523C19.9206 13.5045 20.1223 13.0636 20.5256 12.1818L20.983 11.1818C21.8469 9.29293 22.2788 8.34852 21.8043 7.67426C21.3298 7 20.2333 7 18.0403 7H6.61523Z" fill="white"/>
<path d="M8.66642 19C9.5161 19 10.2049 19.6716 10.2049 20.5C10.2049 21.3284 9.5161 22 8.66642 22C7.81673 22 7.12793 21.3284 7.12793 20.5C7.12793 19.6716 7.81673 19 8.66642 19Z" fill="white"/>
<path d="M20.4608 20.5C20.4608 19.6715 19.7719 19 18.9223 19C18.0726 19 17.3838 19.6715 17.3838 20.5C17.3838 21.3284 18.0726 22 18.9223 22C19.7719 22 20.4608 21.3284 20.4608 20.5Z" fill="white"/>
</svg>
