<svg width="35" height="35" viewBox="0 0 35 35" fill="none" xmlns="http://www.w3.org/2000/svg">
<path fill-rule="evenodd" clip-rule="evenodd" d="M2.97951 3.71827C3.19223 3.10428 3.88199 2.77246 4.52011 2.97713L4.95033 3.11509C4.97176 3.12197 4.99312 3.12883 5.01443 3.13566C6.03161 3.46184 6.89121 3.7375 7.56715 4.04004C8.28564 4.36164 8.90906 4.76021 9.38179 5.39124C9.8545 6.02229 10.0504 6.71737 10.1402 7.47488C10.2248 8.18752 10.2248 9.05931 10.2247 10.0909V14.2448C10.2247 16.4877 10.2273 18.0519 10.3922 19.232C10.5525 20.3785 10.8455 20.9857 11.2949 21.4182C11.7444 21.8505 12.3754 22.1325 13.567 22.2866C14.7936 22.4453 16.4194 22.4478 18.7504 22.4478H30.118C30.7906 22.4478 31.336 22.9724 31.336 23.6197C31.336 24.2669 30.7906 24.7915 30.118 24.7915H18.6613C16.4404 24.7915 14.6503 24.7915 13.2424 24.6094C11.7807 24.4203 10.55 24.0158 9.57248 23.0753C8.59502 22.1349 8.17458 20.9507 7.97807 19.5443C7.78878 18.1897 7.7888 16.4674 7.78883 14.3306V10.1559C7.78883 9.04191 7.78699 8.30478 7.72006 7.74072C7.65669 7.20661 7.54602 6.94897 7.40568 6.76163C7.26534 6.57429 7.0463 6.3918 6.53969 6.16505C6.00469 5.92559 5.27846 5.6908 4.18001 5.33853L3.74981 5.20054C3.11169 4.99589 2.76681 4.33225 2.97951 3.71827Z" fill="#A678EC"/>
<path d="M9.64722 10.2083C9.65494 10.5862 9.65494 10.9952 9.65492 11.4354L9.65491 15.3125C9.65491 17.4058 9.6574 18.8657 9.81544 19.9673C9.83851 20.128 9.86445 20.2775 9.89334 20.4166H25.6417C27.1348 20.4166 27.8814 20.4166 28.4661 20.0554C29.0508 19.694 29.345 19.051 29.9331 17.7651L30.6002 16.3068C31.86 13.5522 32.4899 12.1749 31.7979 11.1916C31.106 10.2083 29.5068 10.2083 26.3087 10.2083H9.64722Z" fill="#A678EC"/>
<path d="M12.6385 27.7083C13.8776 27.7083 14.8822 28.6878 14.8822 29.8958C14.8822 31.1039 13.8776 32.0833 12.6385 32.0833C11.3994 32.0833 10.3949 31.1039 10.3949 29.8958C10.3949 28.6878 11.3994 27.7083 12.6385 27.7083Z" fill="#A678EC"/>
<path d="M29.8389 29.8958C29.8389 28.6876 28.8343 27.7083 27.5953 27.7083C26.3562 27.7083 25.3516 28.6876 25.3516 29.8958C25.3516 31.1039 26.3562 32.0833 27.5953 32.0833C28.8343 32.0833 29.8389 31.1039 29.8389 29.8958Z" fill="#A678EC"/>
</svg>
