<svg width="35" height="35" viewBox="0 0 35 35" fill="none" xmlns="http://www.w3.org/2000/svg">
<path d="M14.0164 12.5949C18.7506 12.5949 19.1837 15.5285 23.5297 15.5993C25.8833 15.3655 31.4484 15.5447 31.9983 11.2293C32.0364 10.13 31.4585 7.84802 28.004 6.33033C26.0043 5.38444 24.504 5.18671 21.7151 5.00207C18.9105 4.94745 15.0062 5.98532 14.0164 6.58619V12.5949Z" fill="#A678EC"/>
<path d="M7.96738 21.5512C12.7016 21.5512 13.1347 18.6177 17.4808 18.5469C19.8344 18.7807 25.3994 18.6015 25.9493 22.9169C25.9874 24.0161 25.4095 26.2981 21.955 27.8158C19.9553 28.7617 18.455 28.9595 15.6661 29.1441C12.8615 29.1987 8.95721 28.1609 7.96738 27.56V21.5512Z" fill="#A678EC"/>
<path d="M12.5316 6.69583V12.5407H10.8269C9.83706 12.5407 7.96738 11.8963 7.96738 9.75482C7.96738 7.61331 9.51107 6.57959 11.2668 6.69583H12.5316Z" fill="#A678EC"/>
<path d="M6.56423 27.3898V21.5449H4.85951C3.86968 21.5449 2 22.1893 2 24.3308C2 26.4723 3.5437 27.506 5.29944 27.3898H6.56423Z" fill="#A678EC"/>
</svg>
