<svg width="35" height="35" viewBox="0 0 35 35" fill="none" xmlns="http://www.w3.org/2000/svg">
<path opacity="0.886" fill-rule="evenodd" clip-rule="evenodd" d="M3.0369 2.08387C4.6787 2.05561 5.04999 2.71863 4.15078 4.07295C4.5486 4.2586 4.84032 4.55032 5.02598 4.94814C5.10532 5.5292 5.13184 6.11267 5.10554 6.69852C4.09775 6.69852 3.08994 6.69852 2.08215 6.69852C2.05585 6.11267 2.08237 5.5292 2.16171 4.94814C2.34736 4.55032 2.63909 4.2586 3.0369 4.07295C2.4079 3.41024 2.4079 2.74721 3.0369 2.08387Z" fill="#A678EC"/>
<path opacity="0.836" fill-rule="evenodd" clip-rule="evenodd" d="M15.1304 2.0838C19.2604 1.68321 22.9734 2.71886 26.2692 5.19073C26.0582 5.53463 25.793 5.82675 25.4736 6.06705C19.7596 2.19813 14.0841 2.25124 8.44715 6.22638C8.1277 5.98608 7.8625 5.69396 7.65152 5.35006C9.86423 3.59445 12.3572 2.5057 15.1304 2.0838Z" fill="#A678EC"/>
<path opacity="0.887" fill-rule="evenodd" clip-rule="evenodd" d="M29.9292 2.08387C31.5711 2.05561 31.9423 2.71863 31.0431 4.07295C31.4409 4.2586 31.7326 4.55032 31.9183 4.94814C31.9977 5.5292 32.0241 6.11267 31.9978 6.69852C30.9901 6.69852 29.9822 6.69852 28.9744 6.69852C28.9482 6.11267 28.9746 5.5292 29.054 4.94814C29.2397 4.55032 29.5314 4.2586 29.9292 4.07295C29.3002 3.41024 29.3002 2.74721 29.9292 2.08387Z" fill="#A678EC"/>
<path opacity="0.838" fill-rule="evenodd" clip-rule="evenodd" d="M16.2444 4.4707C22.9672 4.54058 27.2901 7.77613 29.2132 14.1774C30.2861 20.7571 27.8727 25.5574 21.9729 28.5783C16.0201 30.6375 11.0077 29.2849 6.93555 24.5206C3.50307 19.1187 3.71523 13.8676 7.57205 8.7671C9.93362 6.24696 12.8244 4.81483 16.2444 4.4707ZM15.2897 5.74371C21.0575 5.3244 25.1682 7.71128 27.6219 12.9044C29.3868 18.5896 27.8751 23.1777 23.0868 26.6687C17.4977 29.5819 12.5382 28.7597 8.20856 24.2023C5.61051 20.7579 5.02706 16.9919 6.45817 12.9044C8.17886 8.98416 11.1227 6.59728 15.2897 5.74371ZM16.5627 8.60797C21.9064 8.91284 24.8768 11.7241 25.4737 17.0416C24.9433 22.1337 22.1321 24.9449 17.04 25.4753C11.948 24.9449 9.13679 22.1337 8.60637 17.0416C9.0925 12.1538 11.7446 9.34255 16.5627 8.60797Z" fill="white"/>
<path opacity="0.839" fill-rule="evenodd" clip-rule="evenodd" d="M15.9261 7.49414C21.7899 7.39206 25.3172 10.2033 26.508 15.9278C26.6864 21.796 23.9017 25.3234 18.1539 26.5097C12.2856 26.688 8.7583 23.9033 7.57202 18.1556C7.42473 12.2846 10.2094 8.73075 15.9261 7.49414ZM16.5626 8.60802C11.7446 9.34259 9.09246 12.1538 8.60633 17.0417C9.13675 22.1337 11.948 24.945 17.04 25.4753C22.132 24.945 24.9433 22.1337 25.4737 17.0417C24.8768 11.7241 21.9064 8.91289 16.5626 8.60802Z" fill="#A678EC"/>
<path opacity="0.94" fill-rule="evenodd" clip-rule="evenodd" d="M16.0852 10.0399C18.973 9.82468 20.2726 11.1507 19.9838 14.018C19.8247 14.3363 19.6656 14.6545 19.5064 14.9728C18.7127 15.7929 17.8905 16.5886 17.04 17.3597C16.1894 16.5886 15.3673 15.7929 14.5735 14.9728C13.4342 12.8013 13.9381 11.157 16.0852 10.0399Z" fill="#A678EC"/>
<path opacity="0.834" fill-rule="evenodd" clip-rule="evenodd" d="M3.51427 10.3584C3.96068 10.409 4.33197 10.5947 4.62815 10.9153C2.6359 15.2352 2.74199 19.5051 4.9464 23.725C4.67145 23.9996 4.3532 24.2117 3.99165 24.3615C2.19712 21.126 1.64018 17.6782 2.32083 14.0183C2.60856 12.7574 3.00637 11.5374 3.51427 10.3584Z" fill="#A678EC"/>
<path opacity="0.837" fill-rule="evenodd" clip-rule="evenodd" d="M30.0883 10.358C30.2753 10.3232 30.4344 10.3762 30.5657 10.5171C32.3808 14.6723 32.4604 18.8625 30.8044 23.0881C30.4069 23.8848 29.9561 23.9114 29.4518 23.1676C31.3613 19.0834 31.3613 14.9992 29.4518 10.915C29.6405 10.6903 29.8527 10.5046 30.0883 10.358Z" fill="#A678EC"/>
<path opacity="0.92" fill-rule="evenodd" clip-rule="evenodd" d="M14.494 16.4052C14.6614 16.3814 14.8206 16.4079 14.9714 16.4847C15.6368 17.1768 16.3263 17.8397 17.04 18.4738C17.7873 17.7526 18.5563 17.0632 19.3474 16.4052C20.8404 16.5403 21.7422 17.3359 22.0525 18.7921C22.1319 19.7454 22.1585 20.7001 22.1321 21.6563C18.7374 21.6563 15.3427 21.6563 11.948 21.6563C11.8926 20.4778 11.9722 19.311 12.1867 18.1555C12.6925 17.2024 13.4616 16.6189 14.494 16.4052Z" fill="#A678EC"/>
<path opacity="0.892" fill-rule="evenodd" clip-rule="evenodd" d="M3.19606 27.3848C4.64874 27.4658 5.02002 28.1553 4.30994 29.4534C4.63244 29.6432 4.87113 29.9085 5.02601 30.249C5.10535 30.8302 5.13187 31.4135 5.10557 31.9994C4.09778 31.9994 3.08997 31.9994 2.08218 31.9994C1.83278 30.8909 2.15103 30.0158 3.03693 29.3738C2.59348 29.029 2.46088 28.578 2.63912 28.0213C2.74887 27.7269 2.93452 27.5146 3.19606 27.3848Z" fill="#A678EC"/>
<path opacity="0.892" fill-rule="evenodd" clip-rule="evenodd" d="M30.0883 27.3847C31.2453 27.3109 31.6961 27.8412 31.4409 28.976C31.3613 29.1617 31.2288 29.2942 31.0431 29.3738C31.9289 30.0157 32.2472 30.8909 31.9978 31.9993C30.9901 31.9993 29.9822 31.9993 28.9744 31.9993C28.9482 31.4134 28.9746 30.8301 29.054 30.249C29.2088 29.9084 29.4475 29.6432 29.7701 29.4533C29.2672 28.6437 29.3734 27.954 30.0883 27.3847Z" fill="#A678EC"/>
<path opacity="0.833" fill-rule="evenodd" clip-rule="evenodd" d="M7.81064 27.5439C13.2682 31.6161 18.9437 31.9344 24.8371 28.4987C25.0858 28.7286 25.2979 28.9937 25.4736 29.2943C23.5633 30.7783 21.3887 31.6535 18.9494 31.9199C14.5123 32.4207 10.5872 31.2536 7.17413 28.4191C7.35947 28.1022 7.57163 27.8105 7.81064 27.5439Z" fill="#A678EC"/>
</svg>
