<svg width="36" height="35" viewBox="0 0 36 35" fill="none" xmlns="http://www.w3.org/2000/svg">
<path d="M5.60168 16.2493C7.53215 16.2493 9.10168 14.7172 9.10168 12.8328C9.10168 10.9485 7.53215 9.41642 5.60168 9.41642C3.67122 9.41642 2.10168 10.9485 2.10168 12.8328C2.10168 14.7172 3.67122 16.2493 5.60168 16.2493ZM30.1017 16.2493C32.0322 16.2493 33.6017 14.7172 33.6017 12.8328C33.6017 10.9485 32.0322 9.41642 30.1017 9.41642C28.1712 9.41642 26.6017 10.9485 26.6017 12.8328C26.6017 14.7172 28.1712 16.2493 30.1017 16.2493ZM31.8517 17.9575H28.3517C27.3892 17.9575 26.5197 18.3365 25.8853 18.9504C28.0892 20.1301 29.6532 22.26 29.9923 24.7903H33.6017C34.5697 24.7903 35.3517 24.0269 35.3517 23.0821V21.3739C35.3517 19.4895 33.7822 17.9575 31.8517 17.9575ZM17.8517 17.9575C21.2368 17.9575 23.9767 15.283 23.9767 11.9787C23.9767 8.67441 21.2368 6 17.8517 6C14.4665 6 11.7267 8.67441 11.7267 11.9787C11.7267 15.283 14.4665 17.9575 17.8517 17.9575ZM22.0517 19.6657H21.5978C20.4603 20.1995 19.197 20.5198 17.8517 20.5198C16.5064 20.5198 15.2486 20.1995 14.1056 19.6657H13.6517C10.1736 19.6657 7.35168 22.4202 7.35168 25.8152V27.3526C7.35168 28.7672 8.52747 29.9149 9.97668 29.9149H25.7267C27.1759 29.9149 28.3517 28.7672 28.3517 27.3526V25.8152C28.3517 22.4202 25.5298 19.6657 22.0517 19.6657ZM9.81809 18.9504C9.18372 18.3365 8.31418 17.9575 7.35168 17.9575H3.85168C1.92122 17.9575 0.351685 19.4895 0.351685 21.3739V23.0821C0.351685 24.0269 1.13372 24.7903 2.10168 24.7903H5.70559C6.05012 22.26 7.61418 20.1301 9.81809 18.9504Z" fill="#A678EC"/>
</svg>
