<svg width="35" height="35" viewBox="0 0 35 35" fill="none" xmlns="http://www.w3.org/2000/svg">
<path d="M13.8311 6.90092C16.0789 3.23484 21.2534 5.32367 20.914 9.33092C24.9009 10.6951 25.1128 10.7803 26.1309 11.164C27.1489 11.5477 27.7325 11.6723 27.2422 12.8691C26.7519 14.0659 26.6399 14.617 24.8585 13.9775C23.0772 13.338 21.1262 12.6986 20.0234 12.3575C18.9207 12.0163 18.6662 12.0165 18.6662 12.8691V27.8323C18.6662 29.4948 18.1572 29.3669 17.0544 29.3669H7.5964C6.40544 29.3669 6.3664 29.4948 6.32406 27.9515C6.28679 26.5958 6.19922 26.4337 7.5964 26.3402C8.99357 26.2466 15.4852 26.3402 15.4852 26.3402V12.3575C15.4852 12.3575 13.7887 11.6754 13.4919 9.97024C10.3533 8.98977 8.35994 8.35024 7.38445 8.0093C6.40897 7.66837 6.57857 7.28463 6.83308 6.51718C7.34211 5.15298 7.17229 4.68416 8.8264 5.23835C10.4805 5.79254 13.8311 6.90092 13.8311 6.90092Z" fill="#A678EC"/>
<path d="M8.35994 23.271C7.24609 23.2808 6.13615 23.1374 5.06097 22.8448C3.84796 22.4901 2.98032 21.9408 2.4843 21.2112C1.87603 20.3159 1.84074 19.1587 2.37954 17.7719C4.25421 14.0464 5.09229 12.4517 5.73034 11.2493C6.12865 10.4987 7.09884 9.70068 8.11204 9.70068C8.55337 9.70303 8.9812 9.85389 9.32727 10.1292C9.81195 10.5339 10.1929 11.0496 10.4382 11.633C12.0866 14.9467 12.6417 16.0626 13.3223 17.3456C13.5881 17.8543 13.7699 18.403 13.8606 18.9703C13.995 19.6954 13.8793 20.4449 13.5325 21.0949C13.1463 21.7359 12.5677 22.2373 11.8801 22.5271C10.9909 22.9419 9.80696 23.1921 8.35994 23.271ZM7.96957 11.8716L4.55107 18.7435H11.3881L7.96957 11.8716Z" fill="#A678EC"/>
<path d="M26.4449 29.3697C25.3311 29.3794 24.2211 29.236 23.1459 28.9434C21.9329 28.5887 21.0653 28.0394 20.5693 27.3099C19.961 26.4145 19.9257 25.2574 20.4645 23.8706C22.3392 20.1451 23.1773 18.5503 23.8153 17.3479C24.2136 16.5974 25.1838 15.7993 26.197 15.7993C26.6384 15.8017 27.0662 15.9525 27.4122 16.2278C27.8969 16.6325 28.2779 17.1483 28.5231 17.7317C30.1715 21.0453 30.7266 22.1612 31.4073 23.4443C31.6731 23.9529 31.8549 24.5016 31.9456 25.0689C32.08 25.794 31.9643 26.5435 31.6174 27.1935C31.2312 27.8345 30.6527 28.336 29.9651 28.6257C29.0758 29.0405 27.8919 29.2908 26.4449 29.3697ZM26.0545 17.9702L22.636 24.8422H29.4731L26.0545 17.9702Z" fill="#A678EC"/>
</svg>
