<svg width="35" height="36" viewBox="0 0 35 36" fill="none" xmlns="http://www.w3.org/2000/svg">
<path d="M6.89325 15.1014C8.031 14.7966 8.7062 13.6271 8.40136 12.4893C8.09651 11.3516 6.92705 10.6764 5.7893 10.9812C4.65155 11.2861 3.97634 12.4555 4.28119 13.5933C4.58604 14.731 5.75549 15.4062 6.89325 15.1014Z" fill="#A678EC"/>
<path d="M10.2266 26.7424H7.62891C7.62891 26.7424 7.49219 26.7424 7.38282 26.7424C6.20704 26.633 5.19532 25.7853 4.89454 24.6096L3.11719 17.9924C3.00782 17.6096 2.62501 17.4182 2.29688 17.5002C1.91407 17.6096 1.72266 17.9924 1.80469 18.3205L3.55469 24.9377C4.01954 26.6603 5.46876 27.9182 7.2461 28.0549C7.41016 28.0822 7.60157 28.0822 7.60157 28.0822H10.1992C10.582 28.0822 10.8555 27.7814 10.8828 27.3986C10.8828 27.0158 10.6094 26.7424 10.2266 26.7424Z" fill="#A678EC"/>
<path d="M13.2891 23.0236H9.73438C9.65235 21.6837 9.4336 20.3439 9.10547 19.004C9.07813 18.8946 8.9961 18.6212 8.9961 18.5939C8.53125 16.8712 6.89063 15.7775 5.16797 15.9415C5.16797 15.9415 4.94922 15.9689 4.89453 15.9689C4.26563 16.1329 3.88282 16.7892 4.04688 17.4454L5.87891 24.254C6.07032 25.0196 6.72657 25.5939 7.54688 25.6486H7.71094H11.9492V30.5157C11.9492 31.254 12.5234 31.8556 13.2891 31.8556C14.0273 31.8556 14.6289 31.2814 14.6289 30.5157V24.3634C14.6289 24.0079 14.4922 23.6798 14.2188 23.4337C13.9727 23.1603 13.6172 23.0236 13.2891 23.0236Z" fill="#A678EC"/>
<path d="M30.6057 13.6103C30.9106 12.4725 30.2354 11.3031 29.0976 10.9982C27.9599 10.6934 26.7904 11.3686 26.4856 12.5063C26.1807 13.6441 26.8559 14.8135 27.9937 15.1184C29.1314 15.4232 30.3009 14.748 30.6057 13.6103Z" fill="#A678EC"/>
<path d="M24.6641 26.7424H27.2617C27.2617 26.7424 27.3984 26.7424 27.5078 26.7424C28.6836 26.633 29.6953 25.7853 29.9961 24.6096L31.7734 17.9924C31.8828 17.6096 32.2656 17.4182 32.5937 17.5002C32.9766 17.6096 33.168 17.9924 33.0859 18.3205L31.3359 24.9377C30.8711 26.6603 29.4219 27.9182 27.6445 28.0549C27.4805 28.0822 27.2891 28.0822 27.2891 28.0822H24.6914C24.3086 28.0822 24.0352 27.7814 24.0078 27.3986C24.0078 27.0158 24.3086 26.7424 24.6641 26.7424Z" fill="#A678EC"/>
<path d="M21.6016 23.0238H25.1563C25.2383 21.684 25.457 20.3441 25.7852 19.0043C25.8125 18.8949 25.8945 18.6215 25.8945 18.5941C26.3594 16.8715 28 15.7777 29.7227 15.9418C29.7227 15.9418 29.9414 15.9691 29.9961 15.9691C30.625 16.1332 31.0078 16.7894 30.8438 17.4457L28.9844 24.2543C28.793 25.0199 28.1367 25.5941 27.3164 25.6488H27.1523H22.9414V30.516C22.9414 31.2543 22.3672 31.8558 21.6016 31.8558C20.8359 31.8558 20.2617 31.2816 20.2617 30.516V24.3636C20.2617 24.0082 20.3984 23.68 20.6719 23.434C20.918 23.1605 21.2734 23.0238 21.6016 23.0238Z" fill="#A678EC"/>
<path d="M24.4453 19.4417H10.6094V21.0823H24.4453V19.4417Z" fill="#A678EC"/>
<path d="M17.5273 13.8635C18.6147 13.8635 19.4961 12.9821 19.4961 11.8948C19.4961 10.8075 18.6147 9.92603 17.5273 9.92603C16.44 9.92603 15.5586 10.8075 15.5586 11.8948C15.5586 12.9821 16.44 13.8635 17.5273 13.8635Z" fill="#A678EC"/>
<path d="M14.3555 18.6487V17.4729H14.3281C14.3281 17.3362 14.4375 17.2268 14.5742 17.2268C14.7109 17.2268 14.8203 17.3362 14.8203 17.4729V18.6487H20.2617V17.4729H20.2344C20.2344 17.3362 20.3438 17.2268 20.4805 17.2268C20.6172 17.2268 20.7266 17.3362 20.7266 17.4729V18.6487H22.4219V16.9807C22.4219 15.6135 21.3281 14.5198 19.9609 14.5198H15.0391C13.6719 14.5198 12.5781 15.6135 12.5781 16.9807V18.6487H14.3555Z" fill="#A678EC"/>
</svg>
