<svg width="36" height="35" viewBox="0 0 36 35" fill="none" xmlns="http://www.w3.org/2000/svg">
<path d="M33.9498 22.5073C34.092 21.7545 34.092 20.9858 33.9498 20.233L35.3609 19.4375C35.525 19.3468 35.5961 19.1599 35.5414 18.9838C35.1749 17.8306 34.546 16.7842 33.7256 15.9193C33.5998 15.7859 33.3974 15.7538 33.2333 15.8446L31.8222 16.6401C31.2261 16.1436 30.5424 15.7592 29.8041 15.5029V13.912C29.8041 13.7305 29.6728 13.5703 29.4923 13.5329C28.2726 13.266 27.0311 13.2767 25.8716 13.5329C25.6911 13.5703 25.5599 13.7305 25.5599 13.912V15.5029C24.8215 15.7592 24.1378 16.1436 23.5417 16.6401L22.1306 15.8446C21.972 15.7538 21.7642 15.7859 21.6384 15.9193C20.818 16.7842 20.189 17.8306 19.8225 18.9838C19.7678 19.1599 19.8444 19.3468 20.003 19.4375L21.4141 20.233C21.2719 20.9858 21.2719 21.7545 21.4141 22.5073L20.003 23.3028C19.8389 23.3935 19.7678 23.5804 19.8225 23.7566C20.189 24.9097 20.818 25.9508 21.6384 26.821C21.7642 26.9545 21.9665 26.9865 22.1306 26.8957L23.5417 26.1003C24.1378 26.5968 24.8215 26.9812 25.5599 27.2374V28.8283C25.5599 29.0099 25.6911 29.17 25.8716 29.2074C27.0913 29.4743 28.3328 29.4637 29.4923 29.2074C29.6728 29.17 29.8041 29.0099 29.8041 28.8283V27.2374C30.5424 26.9812 31.2261 26.5968 31.8222 26.1003L33.2333 26.8957C33.3919 26.9865 33.5998 26.9545 33.7256 26.821C34.546 25.9561 35.1749 24.9097 35.5414 23.7566C35.5961 23.5804 35.5195 23.3935 35.3609 23.3028L33.9498 22.5073ZM27.6874 23.9594C26.2217 23.9594 25.0348 22.7956 25.0348 21.3702C25.0348 19.9447 26.2271 18.7809 27.6874 18.7809C29.1477 18.7809 30.3401 19.9447 30.3401 21.3702C30.3401 22.7956 29.1532 23.9594 27.6874 23.9594ZM5.81012 16.245C7.7408 16.245 9.31049 14.7128 9.31049 12.8282C9.31049 10.9437 7.7408 9.41144 5.81012 9.41144C3.87945 9.41144 2.30975 10.9437 2.30975 12.8282C2.30975 14.7128 3.87945 16.245 5.81012 16.245ZM18.0614 17.9534C18.1653 17.9534 18.2638 17.9267 18.3677 17.9214C18.8217 16.7628 19.4889 15.6738 20.3531 14.7608C20.7578 14.3337 21.3321 14.0882 21.9337 14.0882C22.3111 14.0882 22.683 14.1843 23.0057 14.3711L23.4378 14.6167C23.4815 14.59 23.5253 14.5686 23.569 14.5419C23.9519 13.7625 24.1816 12.8976 24.1816 11.9794C24.1816 8.6747 21.4415 6 18.0559 6C14.6704 6 11.9358 8.66936 11.9358 11.974C11.9358 15.2787 14.6759 17.9534 18.0614 17.9534ZM23.8151 28.3372C23.6894 28.2731 23.5636 28.1984 23.4432 28.129C22.9947 28.3852 22.6064 28.6522 21.9392 28.6522C21.343 28.6522 20.7687 28.4066 20.3585 27.9795C19.3576 26.9224 18.5919 25.6358 18.1599 24.2637C17.5746 22.4219 19.5217 21.6104 19.571 21.5784C19.5655 21.4396 19.5655 21.3008 19.571 21.162L19.1389 20.9164C18.931 20.7989 18.756 20.6494 18.6029 20.4839C18.4224 20.4946 18.2474 20.516 18.0669 20.516C16.7214 20.516 15.4635 20.1956 14.3204 19.6618H13.8664C10.3825 19.6618 7.56031 22.4166 7.56031 25.812V27.3495C7.56031 28.7643 8.73621 29.9121 10.1856 29.9121H24.1542C23.9519 29.5918 23.8151 29.2288 23.8151 28.8283V28.3372ZM10.027 18.9464C9.39253 18.3324 8.52291 17.9534 7.56031 17.9534H4.05994C2.12927 17.9534 0.55957 19.4856 0.55957 21.3702V23.0786C0.55957 24.0235 1.34168 24.7869 2.30975 24.7869H5.91404C6.25861 22.2564 7.82284 20.1262 10.027 18.9464Z" fill="#A678EC"/>
</svg>
