<svg width="35" height="35" viewBox="0 0 35 35" fill="none" xmlns="http://www.w3.org/2000/svg">
<path d="M17.0498 5C16.0808 5 15.3359 5.71984 15.3359 6.60745V13.0373C15.3359 13.9264 16.0808 14.6447 17.0498 14.6447C17.9249 14.6447 18.7167 13.9264 18.7167 13.0373V10.4904L29.1599 20.6023C29.4726 20.9018 29.8956 21.0696 30.3362 21.069C30.7769 21.0684 31.1995 20.8995 31.5113 20.5992C31.8231 20.2989 31.9988 19.8917 32 19.4667C32.0012 19.0418 31.8277 18.6337 31.5175 18.3318L21.0297 8.2149H23.7177C24.5929 8.2149 25.3847 7.49506 25.3847 6.60745C25.3847 5.71984 24.5929 5 23.7177 5H17.0498ZM2 9.01863C2 9.49551 2.14666 9.96169 2.42141 10.3582C2.69617 10.7547 3.08669 11.0638 3.54359 11.2463C4.0005 11.4288 4.50326 11.4765 4.9883 11.3835C5.47335 11.2904 5.91889 11.0608 6.26859 10.7236C6.61828 10.3864 6.85643 9.95675 6.95291 9.48902C7.04939 9.0213 6.99988 8.53649 6.81062 8.09591C6.62137 7.65532 6.30087 7.27875 5.88967 7.01381C5.47847 6.74886 4.99503 6.60745 4.50048 6.60745C3.83737 6.60761 3.20145 6.8617 2.73256 7.31384C2.26366 7.76599 2.00017 8.37919 2 9.01863ZM8.66795 15.4484C8.66795 15.9253 8.81459 16.3915 9.08935 16.788C9.36411 17.1845 9.75463 17.4936 10.2115 17.6761C10.6684 17.8586 11.1712 17.9063 11.6562 17.8133C12.1413 17.7202 12.5868 17.4906 12.9365 17.1534C13.2862 16.8162 13.5244 16.3865 13.6209 15.9188C13.7173 15.4511 13.6678 14.9663 13.4786 14.5257C13.2893 14.0851 12.9688 13.7086 12.5576 13.4436C12.1464 13.1787 11.663 13.0373 11.1684 13.0373C10.5053 13.0374 9.8694 13.2915 9.4005 13.7436C8.93161 14.1958 8.66811 14.809 8.66795 15.4484ZM13.6689 21.8782C13.6689 21.4013 13.5223 20.9352 13.2475 20.5387C12.9727 20.1421 12.5822 19.8331 12.1253 19.6506C11.6684 19.4681 11.1656 19.4203 10.6806 19.5134C10.1956 19.6064 9.75002 19.8361 9.40032 20.1733C9.05062 20.5105 8.81247 20.9401 8.71599 21.4078C8.61951 21.8756 8.66903 22.3604 8.85828 22.8009C9.04754 23.2415 9.36803 23.6181 9.77923 23.8831C10.1904 24.148 10.6739 24.2894 11.1684 24.2894C11.8315 24.2892 12.4675 24.0352 12.9363 23.583C13.4052 23.1309 13.6687 22.5177 13.6689 21.8782ZM8.66795 28.308C8.66795 28.7849 8.81459 29.2511 9.08935 29.6476C9.36411 30.0441 9.75463 30.3532 10.2115 30.5357C10.6684 30.7182 11.1712 30.7659 11.6562 30.6729C12.1413 30.5798 12.5868 30.3502 12.9365 30.013C13.2862 29.6758 13.5244 29.2462 13.6209 28.7784C13.7173 28.3107 13.6678 27.8259 13.4786 27.3853C13.2893 26.9447 12.9688 26.5682 12.5576 26.3032C12.1464 26.0383 11.663 25.8969 11.1684 25.8969C10.5053 25.897 9.8694 26.1511 9.4005 26.6032C8.93161 27.0554 8.66811 27.6686 8.66795 28.308ZM2 28.308C2 28.7849 2.14666 29.2511 2.42141 29.6476C2.69617 30.0441 3.08669 30.3532 3.54359 30.5357C4.0005 30.7182 4.50326 30.7659 4.9883 30.6729C5.47335 30.5798 5.91889 30.3502 6.26859 30.013C6.61828 29.6758 6.85643 29.2462 6.95291 28.7784C7.04939 28.3107 6.99988 27.8259 6.81062 27.3853C6.62137 26.9447 6.30087 26.5682 5.88967 26.3032C5.47847 26.0383 4.99503 25.8969 4.50048 25.8969C3.83737 25.897 3.20145 26.1511 2.73256 26.6032C2.26366 27.0554 2.00017 27.6686 2 28.308ZM20.3837 21.8782C20.3837 20.5471 19.2168 19.4671 17.8832 19.4671C16.4559 19.4671 15.3359 20.5471 15.3359 21.8782C15.3359 23.2094 16.4559 24.2894 17.8832 24.2894C19.2168 24.2894 20.3837 23.2094 20.3837 21.8782ZM15.3359 28.308C15.3359 29.6392 16.4559 30.7192 17.8832 30.7192C19.2168 30.7192 20.3837 29.6392 20.3837 28.308C20.3837 26.9769 19.2168 25.8969 17.8832 25.8969C16.4559 25.8969 15.3359 26.9769 15.3359 28.308ZM27.0517 28.308C27.0517 26.9769 25.8848 25.8969 24.5512 25.8969C23.1238 25.8969 22.0507 26.9769 22.0507 28.308C22.0507 29.6392 23.1238 30.7192 24.5512 30.7192C25.8848 30.7192 27.0517 29.6392 27.0517 28.308ZM2 21.8782C2 22.3551 2.14666 22.8213 2.42141 23.2178C2.69617 23.6143 3.08669 23.9234 3.54359 24.1059C4.0005 24.2884 4.50326 24.3361 4.9883 24.2431C5.47335 24.15 5.91889 23.9204 6.26859 23.5832C6.61828 23.246 6.85643 22.8164 6.95291 22.3486C7.04939 21.8809 6.99988 21.3961 6.81062 20.9555C6.62137 20.5149 6.30087 20.1384 5.88967 19.8734C5.47847 19.6085 4.99503 19.4671 4.50048 19.4671C3.83737 19.4672 3.20145 19.7213 2.73256 20.1734C2.26366 20.6256 2.00017 21.2388 2 21.8782ZM7.00096 15.4484C7.00096 14.9715 6.85431 14.5054 6.57955 14.1089C6.3048 13.7123 5.91428 13.4033 5.45737 13.2208C5.00047 13.0383 4.49771 12.9905 4.01266 13.0836C3.52762 13.1766 3.08208 13.4063 2.73238 13.7435C2.38268 14.0807 2.14453 14.5103 2.04805 14.978C1.95157 15.4458 2.00109 15.9306 2.19034 16.3711C2.3796 16.8117 2.70009 17.1883 3.11129 17.4532C3.52249 17.7182 4.00593 17.8596 4.50048 17.8596C5.1636 17.8594 5.79951 17.6054 6.2684 17.1532C6.7373 16.7011 7.00079 16.0879 7.00096 15.4484Z" fill="#A678EC"/>
</svg>
