<svg width="24" height="24" viewBox="0 0 24 24" fill="none" xmlns="http://www.w3.org/2000/svg">
<path fill-rule="evenodd" clip-rule="evenodd" d="M17.9026 11.6015C17.4689 11.6015 17.0905 11.2821 17.0281 10.8402C16.9609 10.3558 17.2968 9.90908 17.7812 9.8419C19.0069 9.66983 19.9321 8.60673 19.9345 7.36685C19.9345 6.13758 19.0529 5.09805 17.8378 4.89887C17.3569 4.81991 17.0304 4.36497 17.1094 3.88292C17.1895 3.40088 17.641 3.07794 18.1254 3.15455C20.1973 3.49516 21.7024 5.26777 21.7024 7.36921C21.6977 9.48479 20.1172 11.2998 18.0252 11.5933C17.9839 11.5992 17.9427 11.6015 17.9026 11.6015Z" fill="white"/>
<mask id="mask0_5322_108" style="mask-type:luminance" maskUnits="userSpaceOnUse" x="19" y="13" width="5" height="7">
<path fill-rule="evenodd" clip-rule="evenodd" d="M19.1914 13.7883H23.663V19.1269H19.1914V13.7883Z" fill="white"/>
</mask>
<g mask="url(#mask0_5322_108)">
<path fill-rule="evenodd" clip-rule="evenodd" d="M21.411 19.1269C21.0551 19.1269 20.7192 18.91 20.5848 18.5576C20.4104 18.1015 20.6402 17.59 21.0963 17.4167C21.8954 17.1126 21.8954 16.7767 21.8954 16.6153C21.8954 16.099 21.2389 15.7384 19.9448 15.5451C19.4628 15.472 19.1293 15.023 19.2012 14.5386C19.273 14.0554 19.7209 13.7336 20.2077 13.7961C23.0634 14.2239 23.6633 15.5651 23.6633 16.6153C23.6633 17.2564 23.4111 18.4268 21.7257 19.0691C21.622 19.108 21.5159 19.1269 21.411 19.1269Z" fill="white"/>
</g>
<path fill-rule="evenodd" clip-rule="evenodd" d="M11.8278 16.0422C9.02744 16.0422 5.68848 16.3864 5.68848 18.0246C5.68848 19.6758 9.02744 20.0224 11.8278 20.0224C14.6281 20.0224 17.9659 19.6794 17.9659 18.0447C17.9659 16.3899 14.6281 16.0422 11.8278 16.0422ZM11.8291 21.7901C9.87378 21.7901 3.92188 21.7901 3.92188 18.0245C3.92188 14.2742 9.87378 14.2742 11.8291 14.2742C13.7844 14.2742 19.7351 14.2742 19.7351 18.0445C19.7351 21.7901 13.9918 21.7901 11.8291 21.7901Z" fill="white"/>
<path fill-rule="evenodd" clip-rule="evenodd" d="M11.8308 3.76807C9.83662 3.76807 8.21487 5.39099 8.21487 7.38518C8.21133 8.35163 8.58141 9.25561 9.2591 9.93802C9.9368 10.6204 10.8396 10.9988 11.8013 11.0023L11.8308 11.8862V11.0023C13.825 11.0023 15.4479 9.38054 15.4479 7.38518C15.4479 5.39099 13.825 3.76807 11.8308 3.76807ZM11.8321 12.77H11.8003C10.3624 12.7653 9.01527 12.2019 8.00639 11.1836C6.99516 10.1665 6.4424 8.81582 6.44829 7.38147C6.44829 4.41612 8.86323 2 11.8321 2C14.8022 2 17.2171 4.41612 17.2171 7.38501C17.2171 10.3539 14.8022 12.77 11.8321 12.77Z" fill="white"/>
<path fill-rule="evenodd" clip-rule="evenodd" d="M5.7576 11.6015C5.71753 11.6015 5.67628 11.5992 5.63503 11.5933C3.54302 11.2998 1.9637 9.48477 1.95898 7.37154C1.95898 5.26775 3.46405 3.49514 5.53602 3.15453C6.03221 3.07674 6.47183 3.40321 6.55197 3.8829C6.63094 4.36494 6.30447 4.81988 5.8236 4.89885C4.60847 5.09803 3.72688 6.13755 3.72688 7.36919C3.72924 8.60671 4.65443 9.67098 5.87899 9.84188C6.3634 9.90906 6.6993 10.3557 6.63212 10.8402C6.56965 11.2821 6.19132 11.6015 5.7576 11.6015Z" fill="white"/>
<path fill-rule="evenodd" clip-rule="evenodd" d="M2.25348 19.1264C2.14858 19.1264 2.04251 19.1075 1.93879 19.0686C0.252219 18.4251 0 17.2548 0 16.6148C0 15.5658 0.599905 14.2234 3.45682 13.7956C3.94358 13.7343 4.38909 14.0549 4.46216 14.5381C4.53406 15.0225 4.20052 15.4715 3.71847 15.5446C2.42437 15.7379 1.76789 16.0986 1.76789 16.6148C1.76789 16.7763 1.76789 17.111 2.56816 17.4162C3.02428 17.5895 3.2541 18.101 3.07967 18.5571C2.94531 18.9095 2.60941 19.1264 2.25348 19.1264Z" fill="white"/>
</svg>
