<svg width="36" height="35" viewBox="0 0 36 35" fill="none" xmlns="http://www.w3.org/2000/svg">
<path d="M19.2342 11.0421V4H8.62481C7.91929 4 7.35168 4.55405 7.35168 5.24272V29.2687C7.35168 29.9573 7.91929 30.5114 8.62481 30.5114H26.4486C27.1541 30.5114 27.7217 29.9573 27.7217 29.2687V12.2848H20.5073C19.8071 12.2848 19.2342 11.7256 19.2342 11.0421ZM22.6292 23.2622C22.6292 23.6039 22.3427 23.8835 21.9926 23.8835H13.0807C12.7306 23.8835 12.4442 23.6039 12.4442 23.2622V22.8479C12.4442 22.5062 12.7306 22.2266 13.0807 22.2266H21.9926C22.3427 22.2266 22.6292 22.5062 22.6292 22.8479V23.2622ZM22.6292 19.9483C22.6292 20.29 22.3427 20.5696 21.9926 20.5696H13.0807C12.7306 20.5696 12.4442 20.29 12.4442 19.9483V19.534C12.4442 19.1923 12.7306 18.9127 13.0807 18.9127H21.9926C22.3427 18.9127 22.6292 19.1923 22.6292 19.534V19.9483ZM22.6292 16.2201V16.6343C22.6292 16.9761 22.3427 17.2557 21.9926 17.2557H13.0807C12.7306 17.2557 12.4442 16.9761 12.4442 16.6343V16.2201C12.4442 15.8783 12.7306 15.5987 13.0807 15.5987H21.9926C22.3427 15.5987 22.6292 15.8783 22.6292 16.2201ZM27.7217 10.312V10.6278H20.9317V4H21.2553C21.5948 4 21.9184 4.12945 22.1571 4.36246L27.3504 9.43691C27.5891 9.66992 27.7217 9.98578 27.7217 10.312Z" fill="#A678EC"/>
</svg>
