<svg width="20" height="19" viewBox="0 0 20 19" fill="none" xmlns="http://www.w3.org/2000/svg">
<path fill-rule="evenodd" clip-rule="evenodd" d="M17.8573 18.9395H10.9496C10.5554 18.9395 10.2354 18.6035 10.2354 18.1895C10.2354 17.7755 10.5554 17.4395 10.9496 17.4395H17.8573C18.2515 17.4395 18.5715 17.7755 18.5715 18.1895C18.5715 18.6035 18.2515 18.9395 17.8573 18.9395Z" fill="white"/>
<mask id="mask0_781_5844" style="mask-type:luminance" maskUnits="userSpaceOnUse" x="0" y="0" width="17" height="19">
<path fill-rule="evenodd" clip-rule="evenodd" d="M0 0H16.3625V18.9395H0V0Z" fill="white"/>
</mask>
<g mask="url(#mask0_781_5844)">
<path fill-rule="evenodd" clip-rule="evenodd" d="M10.5809 2.01659L1.6142 13.7916C1.45135 14.0056 1.39135 14.2816 1.45135 14.5466L2.09992 17.4316L4.9942 17.3936C5.26944 17.3906 5.52373 17.2616 5.6923 17.0416C8.75611 13.0166 14.5971 5.34259 14.7628 5.11759C14.919 4.85159 14.9799 4.47559 14.898 4.11359C14.8142 3.74259 14.5942 3.42759 14.2771 3.22659C14.2094 3.17759 12.6047 1.86959 12.5552 1.82859C11.9513 1.32059 11.0704 1.40859 10.5809 2.01659ZM1.53645 18.9396C1.20598 18.9396 0.918357 18.7016 0.841214 18.3626L0.0612136 14.8916C-0.0997388 14.1726 0.0602612 13.4306 0.499309 12.8546L9.47074 1.07264C9.47455 1.06864 9.47741 1.06364 9.48122 1.05964C10.465 -0.175357 12.2441 -0.357357 13.4441 0.653643C13.4917 0.692643 15.085 1.99264 15.085 1.99264C15.6641 2.35464 16.1165 3.00164 16.2879 3.76764C16.4584 4.52564 16.3345 5.30764 15.9374 5.96864C15.9079 6.01764 15.8822 6.05964 6.80788 17.9796C6.37074 18.5516 5.7155 18.8846 5.01169 18.8936L1.54598 18.9396H1.53645Z" fill="white"/>
</g>
<path fill-rule="evenodd" clip-rule="evenodd" d="M13.5463 8.68471C13.3939 8.68471 13.2415 8.63371 13.111 8.52971L7.91863 4.34171C7.60625 4.08971 7.54721 3.61971 7.78721 3.28971C8.02816 2.96171 8.47578 2.90071 8.78911 3.15271L13.9824 7.33971C14.2948 7.59171 14.3539 8.06271 14.1129 8.39171C13.9729 8.58371 13.7605 8.68471 13.5463 8.68471Z" fill="white"/>
</svg>
