<svg width="36" height="35" viewBox="0 0 36 35" fill="none" xmlns="http://www.w3.org/2000/svg">
<path d="M17.5552 32.0047C14.0945 32.0028 10.7408 30.8045 8.06241 28.613C5.38398 26.4215 3.54546 23.3715 2.85832 19.9797C2.17119 16.5879 2.67767 13.0628 4.29198 10.0016C5.90629 6.94047 8.52916 4.53147 11.7163 3.18273C15.382 1.63414 19.5127 1.60519 23.1998 3.10223C25.0255 3.84349 26.6872 4.93708 28.0903 6.32056C29.4933 7.70404 30.6101 9.35032 31.3768 11.1654C32.1436 12.9805 32.5454 14.9288 32.5592 16.8992C32.573 18.8695 32.1986 20.8233 31.4573 22.649C30.7161 24.4746 29.6225 26.1364 28.239 27.5394C26.8555 28.9424 25.2093 30.0592 23.3942 30.826C21.547 31.6077 19.561 32.0087 17.5552 32.0047ZM9.96546 21.048C9.79738 21.0418 9.6307 21.0806 9.48263 21.1604C9.33456 21.2401 9.21048 21.358 9.1232 21.5018C9.00974 21.7242 8.95435 21.9716 8.96218 22.2212C8.97001 22.4707 9.0408 22.7142 9.16798 22.9291C9.75859 24.0369 12.1253 27.6511 17.7791 27.6511C23.0494 27.6511 25.3097 24.3489 26.0369 22.9291C26.2751 22.3693 26.3022 21.944 26.1175 21.6639C25.9496 21.41 25.6142 21.2813 25.1212 21.2813C24.774 21.2875 24.4289 21.3367 24.0938 21.4277C21.9111 21.8022 19.6995 21.983 17.4849 21.9679C14.4548 21.9679 11.8573 21.667 10.5368 21.1619C10.3548 21.0897 10.1612 21.0511 9.96546 21.048ZM22.3276 10.9176C21.5682 10.9176 20.7866 11.4197 20.1274 12.3314C19.5592 13.1131 19.1925 14.0229 19.0597 14.9802C19.0123 15.4389 19.0611 15.7524 19.205 15.912C19.2362 15.9479 19.2749 15.9765 19.3183 15.9958C19.3618 16.0152 19.4089 16.0248 19.4565 16.024C19.5417 16.0182 19.625 15.9954 19.7013 15.9569C19.7776 15.9185 19.8455 15.8651 19.9009 15.8001C19.9281 15.774 19.9497 15.7428 19.9645 15.7081C19.9794 15.6735 19.987 15.6362 19.9871 15.5986C20.2667 14.7384 20.6139 14.1317 21.0465 13.7439C21.4463 13.3867 21.9681 13.1969 22.504 13.214C23.5798 13.214 24.4046 14.5418 24.8002 15.3335C24.8371 15.4361 24.9011 15.5268 24.9855 15.5959C25.0699 15.665 25.1714 15.7098 25.2793 15.7257C25.3295 15.7247 25.3788 15.7126 25.4237 15.6901C25.4686 15.6676 25.5079 15.6354 25.5388 15.5959C25.6422 15.4745 25.7985 15.1642 25.6832 14.4503C25.5056 13.6068 25.1164 12.8224 24.5523 12.1707C23.8706 11.3624 23.0803 10.9176 22.3276 10.9176ZM12.7005 10.9176C11.941 10.9176 11.1597 11.4197 10.5003 12.3314C9.93214 13.1131 9.56549 14.0229 9.43284 14.9802C9.38537 15.4389 9.43418 15.7526 9.57814 15.912C9.60931 15.9479 9.64794 15.9765 9.69134 15.9958C9.73474 16.0152 9.78184 16.0248 9.82934 16.024C9.9146 16.0182 9.99784 15.9954 10.0742 15.9569C10.1505 15.9185 10.2183 15.8651 10.2738 15.8001C10.301 15.774 10.3226 15.7427 10.3374 15.7081C10.3522 15.6735 10.3599 15.6362 10.36 15.5986C10.6396 14.7384 10.9868 14.1317 11.4194 13.7439C11.8192 13.3867 12.3412 13.1969 12.8771 13.214C13.9518 13.214 14.7775 14.5418 15.1733 15.3335C15.2101 15.4361 15.2741 15.5268 15.3585 15.5959C15.4428 15.6649 15.5443 15.7098 15.6522 15.7257C15.7024 15.7247 15.7517 15.7126 15.7966 15.6901C15.8415 15.6676 15.8808 15.6354 15.9117 15.5959C16.0151 15.4745 16.1711 15.1642 16.0561 14.4503C15.8784 13.6068 15.4893 12.8224 14.9252 12.1707C14.2435 11.3624 13.4532 10.9176 12.7005 10.9176Z" fill="#A678EC"/>
</svg>
