<svg width="14" height="14" viewBox="0 0 14 14" fill="none" xmlns="http://www.w3.org/2000/svg">
<path d="M9.08835 6.99995C9.08835 8.15495 8.15502 9.08829 7.00002 9.08829C5.84502 9.08829 4.91168 8.15495 4.91168 6.99995C4.91168 5.84495 5.84502 4.91162 7.00002 4.91162C8.15502 4.91162 9.08835 5.84495 9.08835 6.99995Z" stroke="#84818A" stroke-width="1.3" stroke-linecap="round" stroke-linejoin="round"/>
<path d="M7 11.8242C9.05917 11.8242 10.9783 10.6109 12.3142 8.51088C12.8392 7.68838 12.8392 6.30588 12.3142 5.48338C10.9783 3.38338 9.05917 2.17004 7 2.17004C4.94083 2.17004 3.02167 3.38338 1.68583 5.48338C1.16083 6.30588 1.16083 7.68838 1.68583 8.51088C3.02167 10.6109 4.94083 11.8242 7 11.8242Z" stroke="#84818A" stroke-width="1.3" stroke-linecap="round" stroke-linejoin="round"/>
</svg>
