<svg width="14" height="14" viewBox="0 0 14 14" fill="none" xmlns="http://www.w3.org/2000/svg">
<path d="M9.17667 6.99995C9.17667 8.15495 8.24333 9.08829 7.08833 9.08829C5.93333 9.08829 5 8.15495 5 6.99995C5 5.84495 5.93333 4.91162 7.08833 4.91162C8.24333 4.91162 9.17667 5.84495 9.17667 6.99995Z" stroke="#84818A" stroke-width="1.3" stroke-linecap="round" stroke-linejoin="round"/>
<path d="M6.70792 11.6542C8.76708 11.6542 10.6862 10.4408 12.0221 8.34083C12.5471 7.51833 12.5471 6.13583 12.0221 5.31333C10.6862 3.21333 8.76708 2 6.70792 2C4.64875 2 2.72958 3.21333 1.39375 5.31333C0.86875 6.13583 0.86875 7.51833 1.39375 8.34083C2.72958 10.4408 4.64875 11.6542 6.70792 11.6542Z" stroke="#84818A" stroke-width="1.3" stroke-linecap="round" stroke-linejoin="round"/>
<path d="M1.5 2.5L12.75 11.25" stroke="#84818A" stroke-width="1.3" stroke-linecap="round" stroke-linejoin="round"/>
</svg>
