<svg width="35" height="35" viewBox="0 0 35 35" fill="none" xmlns="http://www.w3.org/2000/svg">
<path d="M17.4993 32.0833C25.5534 32.0833 32.0826 25.5542 32.0826 17.5C32.0826 9.44585 25.5534 2.91667 17.4993 2.91667C9.44514 2.91667 2.91595 9.44585 2.91595 17.5C2.91595 25.5542 9.44514 32.0833 17.4993 32.0833Z" stroke="#A678EC" stroke-width="2.2" stroke-linecap="round" stroke-linejoin="round"/>
<path d="M17.5 26.25C22.3325 26.25 26.25 22.3325 26.25 17.5C26.25 12.6675 22.3325 8.75 17.5 8.75C12.6675 8.75 8.75 12.6675 8.75 17.5C8.75 22.3325 12.6675 26.25 17.5 26.25Z" stroke="#A678EC" stroke-width="2.2" stroke-linecap="round" stroke-linejoin="round"/>
<path d="M17.5007 20.4167C19.1115 20.4167 20.4174 19.1108 20.4174 17.5C20.4174 15.8892 19.1115 14.5833 17.5007 14.5833C15.8899 14.5833 14.584 15.8892 14.584 17.5C14.584 19.1108 15.8899 20.4167 17.5007 20.4167Z" stroke="#A678EC" stroke-width="2.2" stroke-linecap="round" stroke-linejoin="round"/>
</svg>
