<svg width="35" height="35" viewBox="0 0 35 35" fill="none" xmlns="http://www.w3.org/2000/svg">
<path d="M10.2083 20.4166L13.5521 17.0728C14.1216 16.5033 15.045 16.5033 15.6145 17.0728L17.9271 19.3854C18.4966 19.9549 19.42 19.9549 19.9895 19.3854L24.7917 14.5833M24.7917 14.5833V18.2291M24.7917 14.5833H21.1458" stroke="#A678EC" stroke-width="2.5" stroke-linecap="round" stroke-linejoin="round"/>
<path d="M32.0833 17.5001C32.0833 24.3747 32.0833 27.8121 29.9476 29.9477C27.812 32.0834 24.3746 32.0834 17.5 32.0834C10.6253 32.0834 7.18803 32.0834 5.05236 29.9477C2.91667 27.8121 2.91667 24.3747 2.91667 17.5001C2.91667 10.6254 2.91667 7.1881 5.05236 5.05243C7.18803 2.91675 10.6253 2.91675 17.5 2.91675C24.3746 2.91675 27.812 2.91675 29.9476 5.05243C31.3677 6.47247 31.8436 8.46797 32.003 11.6667" stroke="#A678EC" stroke-width="2.5" stroke-linecap="round"/>
</svg>
