<svg width="24" height="24" viewBox="0 0 24 24" fill="none" xmlns="http://www.w3.org/2000/svg">
<path d="M18.5 2H16C15.7239 2 15.5 2.22386 15.5 2.5V2.55891L19 5.35891V2.5C19 2.22386 18.7762 2 18.5 2Z" fill="white"/>
<path fill-rule="evenodd" clip-rule="evenodd" d="M10.75 8.5C10.75 7.80964 11.3097 7.25 12 7.25C12.6904 7.25 13.25 7.80964 13.25 8.5C13.25 9.1904 12.6904 9.75 12 9.75C11.3097 9.75 10.75 9.1904 10.75 8.5Z" fill="#1C274C"/>
<path fill-rule="evenodd" clip-rule="evenodd" d="M21 9.86862L21.7815 10.4938C22.105 10.7525 22.5769 10.7001 22.8357 10.3766C23.0944 10.0532 23.042 9.58122 22.7185 9.32242L14.5926 2.82174C13.2231 1.72609 11.277 1.72609 9.90742 2.82174L1.78151 9.32242C1.45806 9.58122 1.40562 10.0532 1.66438 10.3766C1.92313 10.7001 2.3951 10.7525 2.71855 10.4938L3.50003 9.86862V20.1581H2.25003C1.83581 20.1581 1.50003 20.4939 1.50003 20.9081C1.50003 21.3223 1.83581 21.6581 2.25003 21.6581H22.25C22.6642 21.6581 23 21.3223 23 20.9081C23 20.4939 22.6642 20.1581 22.25 20.1581H21V9.86862ZM9.50003 8.40812C9.50003 6.88935 10.7312 5.65812 12.25 5.65812C13.7688 5.65812 15 6.88935 15 8.40812C15 9.92692 13.7688 11.1581 12.25 11.1581C10.7312 11.1581 9.50003 9.92692 9.50003 8.40812ZM12.2994 12.1581C12.9643 12.1581 13.5371 12.158 13.9959 12.2197C14.4875 12.2858 14.9588 12.4349 15.341 12.8171C15.7233 13.1994 15.8723 13.6706 15.9384 14.1623C15.9962 14.5923 15.9998 15.1227 16 15.7351C16 15.776 16 15.8172 16 15.8587V20.1581H14.5V15.9081C14.5 15.1798 14.4984 14.709 14.4518 14.3621C14.4081 14.0368 14.3375 13.9349 14.2804 13.8778C14.2233 13.8207 14.1213 13.7501 13.796 13.7063C13.4491 13.6597 12.9783 13.6581 12.25 13.6581C11.5217 13.6581 11.0509 13.6597 10.7041 13.7063C10.3788 13.7501 10.2768 13.8207 10.2197 13.8778C10.1626 13.9349 10.092 14.0368 10.0483 14.3621C10.0016 14.709 10 15.1798 10 15.9081V20.1581H8.50003V15.8587C8.49999 15.1939 8.49996 14.621 8.56163 14.1623C8.62773 13.6706 8.77679 13.1994 9.15904 12.8171C9.54128 12.4349 10.0125 12.2858 10.5042 12.2197C10.9629 12.158 11.5358 12.1581 12.2007 12.1581H12.2994Z" fill="white"/>
<path fill-rule="evenodd" clip-rule="evenodd" d="M10.75 8.5C10.75 7.80964 11.3097 7.25 12 7.25C12.6904 7.25 13.25 7.80964 13.25 8.5C13.25 9.1904 12.6904 9.75 12 9.75C11.3097 9.75 10.75 9.1904 10.75 8.5Z" fill="white"/>
</svg>
