<svg width="88" height="122" viewBox="0 0 88 122" fill="none" xmlns="http://www.w3.org/2000/svg">
<path d="M38.225 104.269C37.1594 104.269 36.3688 105.06 36.3688 106.126C36.3688 107.191 37.1594 107.982 38.225 107.982C39.2906 107.982 40.0813 107.191 40.0813 106.126C40.0813 105.06 39.2906 104.269 38.225 104.269ZM68.9563 82.8538C68.5094 81.5475 67.3063 80.5507 65.8625 80.5507H64.2813V42.4632C64.2813 38.51 61.1188 35.3475 57.1656 35.3475H19.1469C15.1938 35.3475 12.0312 38.51 12.0312 42.4632V103.823C12.0312 107.776 15.1938 110.938 19.1469 110.938H57.0625C57.5094 110.938 57.8531 111.282 57.8531 111.729C57.8531 112.176 57.5094 112.519 57.0625 112.519H41.9719L53.625 119.291H80.0594L68.9563 82.8538ZM38.225 107.982C37.1594 107.982 36.3688 107.191 36.3688 106.126C36.3688 105.06 37.1594 104.269 38.225 104.269C39.2906 104.269 40.0813 105.06 40.0813 106.126C40.0813 107.191 39.2906 107.982 38.225 107.982ZM59.125 80.5507H52.25C50.4969 80.5507 49.0188 82.0631 49.0188 83.7819C49.0188 85.535 50.5313 87.0132 52.25 87.0132H59.0906V101.244H17.2219V44.9382H59.125V80.5507ZM38.1563 52.6725C41.3188 52.6725 43.8625 55.2163 43.8625 58.3788C43.8625 61.5413 41.3188 64.085 38.1563 64.085C34.9938 64.085 32.45 61.5413 32.45 58.3788C32.45 55.2163 34.9938 52.6725 38.1563 52.6725ZM49.7063 79.7944C49.775 79.1757 49.8781 78.4882 49.8781 77.8694C49.8781 71.4413 44.6875 66.1819 38.1906 66.1819C31.7625 66.1819 26.5031 71.3725 26.5031 77.8694C26.5031 78.5913 26.5719 79.1757 26.675 79.7944H49.7063Z" fill="#002257"/>
<path fill-rule="evenodd" clip-rule="evenodd" d="M46.6539 21.8119C46.0437 21.2017 45.0545 21.2017 44.4443 21.8119L40.8616 25.3944V8.33337C40.8616 7.47044 40.162 6.77087 39.2991 6.77087C38.4362 6.77087 37.7366 7.47044 37.7366 8.33337V25.3944L34.1539 21.8119C33.5437 21.2017 32.5544 21.2017 31.9442 21.8119C31.334 22.4221 31.334 23.4113 31.9442 24.0215L38.1943 30.2715C38.8045 30.8817 39.7937 30.8817 40.4039 30.2715L46.6539 24.0215C47.2641 23.4113 47.2641 22.4221 46.6539 21.8119Z" fill="#A678EC"/>
<path d="M51.2733 25C50.3399 25 49.5235 25.5712 48.8637 26.2312L42.6137 32.4812C40.7831 34.3119 37.8152 34.3119 35.9845 32.4812L29.7345 26.2312C29.0747 25.5712 28.2583 25 27.3251 25H22.6324C22.6324 34.2048 30.0944 41.6667 39.2991 41.6667C48.5039 41.6667 55.9658 34.2048 55.9658 25H51.2733Z" fill="#A678EC"/>
</svg>
