<svg width="35" height="35" viewBox="0 0 35 35" fill="none" xmlns="http://www.w3.org/2000/svg">
<path d="M11.6667 2.91667V7.29167" stroke="#A678EC" stroke-width="2.5" stroke-miterlimit="10" stroke-linecap="round" stroke-linejoin="round"/>
<path d="M23.3333 2.91667V7.29167" stroke="#A678EC" stroke-width="2.5" stroke-miterlimit="10" stroke-linecap="round" stroke-linejoin="round"/>
<path d="M30.625 12.3958V19.8771C29.3271 18.8417 27.6792 18.2292 25.8854 18.2292C24.0917 18.2292 22.4146 18.8562 21.1021 19.9208C19.3375 21.3062 18.2292 23.4792 18.2292 25.8854C18.2292 27.3146 18.6375 28.6854 19.3375 29.8229C19.8771 30.7125 20.5771 31.4854 21.4083 32.0833H11.6667C6.5625 32.0833 4.375 29.1667 4.375 24.7917V12.3958C4.375 8.02083 6.5625 5.10417 11.6667 5.10417H23.3333C28.4375 5.10417 30.625 8.02083 30.625 12.3958Z" stroke="#A678EC" stroke-width="2.5" stroke-miterlimit="10" stroke-linecap="round" stroke-linejoin="round"/>
<path d="M10.2083 16.0417H18.9583" stroke="#A678EC" stroke-width="2.5" stroke-miterlimit="10" stroke-linecap="round" stroke-linejoin="round"/>
<path d="M10.2083 23.3333H14.0291" stroke="#A678EC" stroke-width="2.5" stroke-miterlimit="10" stroke-linecap="round" stroke-linejoin="round"/>
<path d="M33.5417 25.8854C33.5417 27.3146 33.1333 28.6854 32.4333 29.8229C32.025 30.5229 31.5146 31.1354 30.9167 31.6313C29.575 32.8271 27.825 33.5417 25.8854 33.5417C24.2084 33.5417 22.6625 33.0021 21.4083 32.0833C20.5771 31.4854 19.8771 30.7125 19.3375 29.8229C18.6375 28.6854 18.2292 27.3146 18.2292 25.8854C18.2292 23.4792 19.3375 21.3062 21.1021 19.9208C22.4146 18.8562 24.0917 18.2292 25.8854 18.2292C27.6792 18.2292 29.3271 18.8417 30.625 19.8771C32.4042 21.2771 33.5417 23.45 33.5417 25.8854Z" stroke="#A678EC" stroke-width="2.5" stroke-miterlimit="10" stroke-linecap="round" stroke-linejoin="round"/>
<path d="M25.8854 29.5313C25.8854 27.5188 27.5187 25.8854 29.5312 25.8854C27.5187 25.8854 25.8854 24.2521 25.8854 22.2396C25.8854 24.2521 24.2521 25.8854 22.2396 25.8854C24.2521 25.8854 25.8854 27.5188 25.8854 29.5313Z" stroke="#A678EC" stroke-width="2.5" stroke-linecap="round" stroke-linejoin="round"/>
</svg>
