<svg width="35" height="35" viewBox="0 0 35 35" fill="none" xmlns="http://www.w3.org/2000/svg">
<path d="M3.96806 19.0519C-0.962429 13.7772 3.87644 6 12.8684 6C21.8968 6.31996 23.8817 12.1421 23.6897 14.7012C23.9453 17.8938 18.3973 25.6109 6.99355 21.5535L6.97742 21.5477C5.39898 22.213 4.23719 22.6051 2.85545 22.7472C1.39553 22.8326 2.38905 21.7107 2.85545 21.07C3.32186 20.4293 3.88566 19.6673 3.96806 19.0519Z" fill="#A678EC"/>
<path d="M25.3268 13.2822C35.207 17.1554 31.5055 24.8436 30.1067 25.8046C31.0685 27.6683 31.3599 27.9014 31.6805 28.3382C32.0011 28.7751 33.2835 30.8142 26.8424 28.0762C24.3068 29.3284 16.4668 31.5119 11.1915 24.3777C13.2899 24.4357 25.0938 24.4357 25.3268 13.2822Z" fill="#A678EC"/>
</svg>
