<svg width="15" height="14" viewBox="0 0 15 14" fill="none" xmlns="http://www.w3.org/2000/svg">
<path d="M7.56491 8.15625V9.28125M4.75241 5.6412C5.01758 5.625 5.34449 5.625 5.76491 5.625H9.36491C9.78532 5.625 10.1122 5.625 10.3774 5.6412M4.75241 5.6412C4.42148 5.66139 4.1867 5.70684 3.9863 5.80894C3.66878 5.97071 3.41062 6.22884 3.24884 6.54637C3.06491 6.90739 3.06491 7.37989 3.06491 8.325V9.1125C3.06491 10.0576 3.06491 10.5301 3.24884 10.8911C3.41062 11.2087 3.66878 11.4668 3.9863 11.6286C4.34728 11.8125 4.81982 11.8125 5.76491 11.8125H9.36491C10.31 11.8125 10.7825 11.8125 11.1435 11.6286C11.4611 11.4668 11.7192 11.2087 11.881 10.8911C12.0649 10.5301 12.0649 10.0576 12.0649 9.1125V8.325C12.0649 7.37989 12.0649 6.90739 11.881 6.54637C11.7192 6.22884 11.4611 5.97071 11.1435 5.80894C10.9431 5.70684 10.7083 5.66139 10.3774 5.6412M4.75241 5.6412V4.5C4.75241 2.9467 6.01161 1.6875 7.56491 1.6875C9.1182 1.6875 10.3774 2.9467 10.3774 4.5V5.6412" stroke="#8F92A1" stroke-width="1.2" stroke-linecap="round" stroke-linejoin="round"/>
</svg>
