<svg width="16" height="19" viewBox="0 0 16 19" fill="none" xmlns="http://www.w3.org/2000/svg">
<path d="M14.8598 7.00896H13.2154V4.99414C13.2154 3.81853 12.7389 2.69108 11.8908 1.85981C11.0427 1.02853 9.8925 0.561523 8.69313 0.561523H7.87091C6.67154 0.561523 5.5213 1.02853 4.67321 1.85981C3.82513 2.69108 3.34869 3.81853 3.34869 4.99414V7.00896H1.70424C1.48617 7.00896 1.27704 7.09387 1.12284 7.24501C0.968646 7.39615 0.882019 7.60114 0.882019 7.81489V17.486C0.882019 17.6998 0.968646 17.9048 1.12284 18.0559C1.27704 18.2071 1.48617 18.292 1.70424 18.292H14.8598C15.0779 18.292 15.287 18.2071 15.4412 18.0559C15.5954 17.9048 15.682 17.6998 15.682 17.486V7.81489C15.682 7.60114 15.5954 7.39615 15.4412 7.24501C15.287 7.09387 15.0779 7.00896 14.8598 7.00896ZM4.99313 4.99414C4.99313 4.24603 5.29632 3.52856 5.83601 2.99956C6.3757 2.47057 7.10767 2.17338 7.87091 2.17338H8.69313C9.45636 2.17338 10.1883 2.47057 10.728 2.99956C11.2677 3.52856 11.5709 4.24603 11.5709 4.99414V7.00896H4.99313V4.99414ZM14.0376 16.6801H2.52646V8.62082H14.0376V16.6801Z" fill="white"/>
<path d="M4.99322 13.8592C5.67437 13.8592 6.22655 13.318 6.22655 12.6503C6.22655 11.9826 5.67437 11.4414 4.99322 11.4414C4.31207 11.4414 3.75989 11.9826 3.75989 12.6503C3.75989 13.318 4.31207 13.8592 4.99322 13.8592Z" fill="white"/>
<path d="M8.2821 13.8592C8.96325 13.8592 9.51543 13.318 9.51543 12.6503C9.51543 11.9826 8.96325 11.4414 8.2821 11.4414C7.60095 11.4414 7.04877 11.9826 7.04877 12.6503C7.04877 13.318 7.60095 13.8592 8.2821 13.8592Z" fill="white"/>
<path d="M11.571 13.8592C12.2521 13.8592 12.8043 13.318 12.8043 12.6503C12.8043 11.9826 12.2521 11.4414 11.571 11.4414C10.8898 11.4414 10.3376 11.9826 10.3376 12.6503C10.3376 13.318 10.8898 13.8592 11.571 13.8592Z" fill="white"/>
</svg>
