<svg width="35" height="35" viewBox="0 0 35 35" fill="none" xmlns="http://www.w3.org/2000/svg">
<path fill-rule="evenodd" clip-rule="evenodd" d="M26.1079 16.9189C25.4754 16.9189 24.9237 16.4531 24.8326 15.8086C24.7346 15.1022 25.2245 14.4507 25.9309 14.3528C27.7184 14.1018 29.0677 12.5515 29.0711 10.7433C29.0711 8.95062 27.7855 7.43465 26.0134 7.14418C25.3121 7.02902 24.836 6.36557 24.9512 5.66258C25.0681 4.9596 25.7264 4.48865 26.4328 4.60037C29.4544 5.0971 31.6493 7.68216 31.6493 10.7468C31.6424 13.832 29.3375 16.4789 26.2867 16.9069C26.2265 16.9155 26.1664 16.9189 26.1079 16.9189Z" fill="#A678EC"/>
<mask id="mask0_5756_1966" style="mask-type:luminance" maskUnits="userSpaceOnUse" x="27" y="20" width="8" height="8">
<path fill-rule="evenodd" clip-rule="evenodd" d="M27.9875 20.108H34.5085V27.8933H27.9875V20.108Z" fill="white"/>
</mask>
<g mask="url(#mask0_5756_1966)">
<path fill-rule="evenodd" clip-rule="evenodd" d="M31.2244 27.8933C30.7054 27.8933 30.2155 27.5771 30.0196 27.0632C29.7652 26.398 30.1003 25.652 30.7655 25.3994C31.9308 24.9559 31.9308 24.4661 31.9308 24.2306C31.9308 23.4778 30.9735 22.9518 29.0863 22.6699C28.3833 22.5634 27.8969 21.9085 28.0017 21.2021C28.1066 20.4974 28.7597 20.0282 29.4695 20.1193C33.6342 20.7432 34.509 22.6992 34.509 24.2306C34.509 25.1656 34.1412 26.8724 31.6833 27.8091C31.5321 27.8658 31.3774 27.8933 31.2244 27.8933Z" fill="#A678EC"/>
</g>
<path fill-rule="evenodd" clip-rule="evenodd" d="M17.2489 23.3949C13.165 23.3949 8.29571 23.8968 8.29571 26.2859C8.29571 28.6939 13.165 29.1993 17.2489 29.1993C21.3327 29.1993 26.2003 28.6991 26.2003 26.3151C26.2003 23.902 21.3327 23.3949 17.2489 23.3949ZM17.2508 31.7772C14.3993 31.7772 5.71942 31.7772 5.71942 26.2857C5.71942 20.8165 14.3993 20.8165 17.2508 20.8165C20.1022 20.8165 28.7804 20.8165 28.7804 26.3149C28.7804 31.7772 20.4047 31.7772 17.2508 31.7772Z" fill="#A678EC"/>
<path fill-rule="evenodd" clip-rule="evenodd" d="M17.2533 5.49509C14.3451 5.49509 11.98 7.86186 11.98 10.77C11.9749 12.1794 12.5146 13.4978 13.5029 14.4929C14.4912 15.4881 15.8078 16.0398 17.2103 16.045L17.2533 17.3341V16.045C20.1614 16.045 22.5282 13.6799 22.5282 10.77C22.5282 7.86186 20.1614 5.49509 17.2533 5.49509ZM17.2552 18.6229H17.2088C15.1118 18.616 13.1473 17.7945 11.676 16.3094C10.2013 14.8261 9.39516 12.8564 9.40375 10.7646C9.40375 6.44017 12.9255 2.91666 17.2552 2.91666C21.5865 2.91666 25.1083 6.44017 25.1083 10.7698C25.1083 15.0994 21.5865 18.6229 17.2552 18.6229Z" fill="#A678EC"/>
<path fill-rule="evenodd" clip-rule="evenodd" d="M8.39652 16.9189C8.33808 16.9189 8.27792 16.9154 8.21777 16.9068C5.16692 16.4789 2.86375 13.8319 2.85687 10.7501C2.85687 7.68211 5.05176 5.09706 8.07339 4.60033C8.797 4.48689 9.4381 4.96299 9.55498 5.66254C9.67014 6.36552 9.19404 7.02898 8.49277 7.14413C6.7207 7.43461 5.43505 8.95058 5.43505 10.7467C5.43849 12.5514 6.78774 14.1035 8.57355 14.3527C9.27998 14.4507 9.76983 15.1021 9.67186 15.8085C9.58076 16.4531 9.02903 16.9189 8.39652 16.9189Z" fill="#A678EC"/>
<path fill-rule="evenodd" clip-rule="evenodd" d="M3.28632 27.8926C3.13335 27.8926 2.97866 27.8651 2.8274 27.8084C0.36782 26.8699 0 25.1632 0 24.2299C0 22.7002 0.874862 20.7425 5.0412 20.1185C5.75106 20.0292 6.40076 20.4967 6.50732 21.2014C6.61217 21.9078 6.12575 22.5626 5.42277 22.6692C3.53554 22.9511 2.57818 23.477 2.57818 24.2299C2.57818 24.4653 2.57818 24.9535 3.74523 25.3986C4.4104 25.6513 4.74557 26.3973 4.49119 27.0624C4.29525 27.5763 3.80539 27.8926 3.28632 27.8926Z" fill="#A678EC"/>
</svg>
