<svg width="35" height="35" viewBox="0 0 35 35" fill="none" xmlns="http://www.w3.org/2000/svg">
<path opacity="0.943" fill-rule="evenodd" clip-rule="evenodd" d="M2.52681 2.00774C4.75772 1.98709 6.98825 2.00775 9.21839 2.0697C9.43191 2.16574 9.55583 2.33097 9.59014 2.56537C9.29372 3.32349 8.96328 4.067 8.5988 4.7959C8.81629 5.41682 9.08477 6.01576 9.40426 6.59271C9.49956 6.91478 9.4789 7.22458 9.3423 7.52209C7.28876 7.70436 5.22347 7.76632 3.1464 7.70797C3.16705 9.5672 3.14639 11.426 3.08445 13.2843C2.82733 13.5505 2.53819 13.5918 2.21702 13.4082C2.13441 9.69066 2.13441 5.97312 2.21702 2.25558C2.34028 2.18545 2.44354 2.10283 2.52681 2.00774Z" fill="#A678EC"/>
<path opacity="0.919" fill-rule="evenodd" clip-rule="evenodd" d="M23.7168 2.75152C25.7201 2.71006 26.8767 3.68075 27.1865 5.66359C29.3643 6.35497 30.9133 7.73872 31.8334 9.81484C32.3603 12.086 31.6375 13.8415 29.6648 15.0814C28.3752 15.7653 27.0121 16.2402 25.5755 16.5064C24.9611 18.487 23.6393 19.2098 21.6102 18.675C20.9399 18.4383 20.4442 18.0046 20.1231 17.3738C17.0144 17.4886 13.9165 17.7984 10.8293 18.3032C10.4041 21.2004 8.83451 22.1092 6.12041 21.0294C5.89323 20.8023 5.66604 20.575 5.43886 20.3479C2.99134 22.2358 2.37175 24.5902 3.58009 27.4112C4.89327 28.8542 6.52486 29.4944 8.47485 29.3319C9.43074 27.1683 10.9591 26.6313 13.0598 27.721C13.5129 28.0919 13.8433 28.5463 14.0512 29.0841C17.618 29.1456 21.1704 28.939 24.7081 28.4645C24.9759 28.1362 25.1825 27.7645 25.3277 27.3492C24.7418 26.4045 24.3081 25.3924 24.0266 24.3132C23.7577 21.5665 24.9968 20.0382 27.7441 19.7283C30.0564 19.9134 31.3162 21.1526 31.5236 23.4458C31.5167 24.1757 31.3722 24.8779 31.0899 25.5524C30.795 26.163 30.4852 26.762 30.1605 27.3492C30.992 28.8685 30.7442 30.1903 29.417 31.3146C28.0575 31.9983 26.7976 31.8538 25.6375 30.8809C25.3656 30.5025 25.159 30.0893 25.0179 29.6417C24.9484 29.577 24.8657 29.5358 24.7701 29.5178C21.2918 29.9276 17.8014 30.196 14.299 30.3233C13.8426 32.2243 12.6448 33.0505 10.7054 32.8016C10.2578 32.6605 9.84469 32.4539 9.46619 32.182C9.0736 31.6865 8.74314 31.1496 8.47485 30.5711C6.22285 30.6062 4.34342 29.8007 2.83658 28.1547C1.21097 24.6427 1.95448 21.71 5.0671 19.3565C4.98298 17.3352 5.93302 16.1787 7.91722 15.8868C9.04654 15.9349 9.91397 16.4306 10.5195 17.3738C13.5818 16.8851 16.6591 16.4721 19.7514 16.1347C20.0246 14.0241 21.2224 13.0948 23.345 13.3465C24.4515 13.606 25.1123 14.2875 25.3277 15.3912C27.1582 15.2086 28.7486 14.5064 30.0985 13.2845C31.1272 11.9555 31.1684 10.5924 30.2225 9.19525C29.3119 8.1194 28.1966 7.33459 26.8767 6.84081C25.752 8.54092 24.2857 8.93333 22.4776 8.01803C21.8082 7.46364 21.3952 6.76143 21.2384 5.91143C18.0294 5.69078 14.8282 5.79404 11.6348 6.22122C10.9325 6.13955 10.7879 5.80911 11.201 5.22988C11.5244 5.13936 11.8548 5.0774 12.1924 5.044C15.2854 4.81212 18.3833 4.66755 21.4862 4.61029C21.9373 3.6209 22.6808 3.00131 23.7168 2.75152ZM27.5582 20.8435C29.9049 21.0204 30.8756 22.2596 30.4703 24.5611C29.9461 26.0755 29.1201 27.3973 27.9919 28.5265C26.527 27.1459 25.5976 25.473 25.2038 23.5078C25.4003 22.093 26.1851 21.205 27.5582 20.8435Z" fill="#A678EC"/>
<path opacity="0.937" fill-rule="evenodd" clip-rule="evenodd" d="M27.1865 21.3391C29.2065 21.1492 30.1359 22.058 29.9747 24.0653C29.2904 25.5844 28.1958 25.9767 26.6908 25.2425C25.7196 24.31 25.5751 23.2567 26.2571 22.0826C26.5191 21.7578 26.8289 21.5099 27.1865 21.3391Z" fill="#A678EC"/>
</svg>
