<svg width="15" height="17" viewBox="0 0 15 17" fill="none" xmlns="http://www.w3.org/2000/svg">
<path d="M13.666 11.5C13.208 11.5 12.666 10.958 12.666 10.5V5.5C12.666 2.74325 10.4228 0.5 7.66602 0.5C4.90927 0.5 2.66602 2.74325 2.66602 5.5V10.5C2.66602 10.9482 2.11427 11.5 1.66602 11.5C1.11327 11.5 0.666016 11.9473 0.666016 12.5C0.666016 13.0527 1.11327 13.5 1.66602 13.5H13.666C14.2188 13.5 14.666 13.0527 14.666 12.5C14.666 11.9473 14.2188 11.5 13.666 11.5Z" fill="white"/>
<path d="M7.66602 16.5C8.77052 16.5 9.66602 15.6045 9.66602 14.5H5.66602C5.66602 15.6045 6.56152 16.5 7.66602 16.5Z" fill="white"/>
</svg>
