<svg width="26" height="26" viewBox="0 0 26 26" fill="none" xmlns="http://www.w3.org/2000/svg">
<g clip-path="url(#clip0_5600_317)">
<path d="M22.541 17.6875C21.8254 17.6875 20.9785 16.8406 20.9785 16.125V8.3125C20.9785 4.00508 17.4734 0.5 13.166 0.5C8.85859 0.5 5.35352 4.00508 5.35352 8.3125V16.125C5.35352 16.8254 4.49141 17.6875 3.79102 17.6875C2.92734 17.6875 2.22852 18.3863 2.22852 19.25C2.22852 20.1137 2.92734 20.8125 3.79102 20.8125H22.541C23.4047 20.8125 24.1035 20.1137 24.1035 19.25C24.1035 18.3863 23.4047 17.6875 22.541 17.6875Z" fill="#1F2128"/>
<path d="M13.166 25.5C14.8918 25.5 16.291 24.1008 16.291 22.375H10.041C10.041 24.1008 11.4402 25.5 13.166 25.5Z" fill="#1F2128"/>
</g>
<defs>
<clipPath id="clip0_5600_317">
<rect width="25" height="25" fill="white" transform="translate(0.666016 0.5)"/>
</clipPath>
</defs>
</svg>
