<svg width="375" height="617" viewBox="0 0 375 617" fill="none" xmlns="http://www.w3.org/2000/svg">
<path fill-rule="evenodd" clip-rule="evenodd" d="M459.892 509.18C391.807 577.265 301.286 614.76 205.001 614.76C108.716 614.76 18.1932 577.265 -49.8919 509.18C-117.977 441.095 -155.472 350.573 -155.472 254.288C-155.472 158.002 -117.977 67.48 -49.8919 -0.605118C18.1932 -68.6887 108.716 -106.183 205.001 -106.183C301.286 -106.183 391.807 -68.6887 459.892 -0.605118C527.977 67.48 565.472 158.002 565.472 254.288C565.472 350.573 527.977 441.095 459.892 509.18ZM460.972 -1.68558C392.6 -70.058 301.693 -107.712 205.001 -107.712C108.307 -107.712 17.4 -70.058 -50.9724 -1.68558C-119.345 66.6883 -157 157.594 -157 254.288C-157 350.981 -119.345 441.888 -50.9724 510.261C17.4 578.633 108.307 616.288 205.001 616.288C301.693 616.288 392.6 578.633 460.972 510.261C529.345 441.888 567 350.981 567 254.288C567 157.594 529.345 66.6883 460.972 -1.68558ZM454.91 503.735C388.281 570.489 299.645 607.301 205.328 607.388H204.99C110.803 607.385 22.2231 570.746 -44.4484 504.197C-111.201 437.568 -148.013 348.931 -148.1 254.615C-148.185 160.298 -111.54 71.5924 -44.91 4.83837C21.7187 -61.9141 110.357 -98.7258 204.674 -98.8129H205.01C299.197 -98.8129 387.777 -62.1708 454.447 4.37685C521.201 71.0071 558.013 159.644 558.1 253.96C558.187 348.277 521.54 436.983 454.91 503.735ZM455.529 3.29641C388.562 -63.5447 299.611 -100.341 205.01 -100.341H204.672C109.947 -100.252 20.9271 -63.2834 -45.9919 3.75946C-112.909 70.8023 -149.715 159.891 -149.628 254.616C-149.539 349.34 -112.57 438.361 -45.5289 505.279C21.4376 572.121 110.389 608.916 204.992 608.916H205.328C300.053 608.828 389.073 571.859 455.992 504.816C522.909 437.773 559.715 348.684 559.628 253.959C559.539 159.234 522.57 70.2139 455.529 3.29641ZM449.928 498.292C384.753 563.716 298 599.84 205.653 600.014H204.981C112.888 600.014 26.2591 564.231 -39.0034 499.215C-104.428 434.039 -140.552 347.287 -140.728 254.942C-140.902 162.593 -105.105 75.7064 -39.9295 10.2834C25.2474 -55.1395 112 -91.265 204.347 -91.4408C204.573 -91.4408 204.794 -91.4408 205.021 -91.4408C297.114 -91.4408 383.741 -55.6576 449.005 9.35886C514.428 74.5342 550.553 161.286 550.728 253.634C550.903 345.982 515.105 432.869 449.928 498.292ZM450.082 8.27534C384.528 -57.0314 297.528 -92.969 205.021 -92.969C204.799 -92.969 204.565 -92.969 204.344 -92.969C111.589 -92.7932 24.4527 -56.5073 -41.0115 9.20449C-106.474 74.9163 -142.432 162.188 -142.256 254.945C-142.08 347.7 -105.794 434.836 -40.0823 500.298C25.472 565.607 112.473 601.547 204.981 601.543H205.656C298.411 601.368 385.547 565.082 451.01 499.371C516.474 433.659 552.431 346.387 552.256 253.63C552.08 160.875 515.794 73.7395 450.082 8.27534ZM444.947 492.847C381.224 556.94 296.358 592.381 205.982 592.642C205.638 592.644 205.312 592.644 204.97 592.644C114.975 592.639 30.2905 557.715 -33.5614 494.234C-97.6517 430.512 -133.093 345.646 -133.355 255.269C-133.617 164.89 -98.668 79.8188 -34.9475 15.7269C28.776 -48.3634 113.642 -83.8058 204.02 -84.0671C204.362 -84.0686 204.687 -84.0686 205.03 -84.0686C295.025 -84.0686 379.711 -49.1397 443.56 14.3408C507.652 78.0629 543.093 162.929 543.355 253.306C543.617 343.685 508.668 428.756 444.947 492.847ZM444.639 13.2573C380.492 -50.5182 295.444 -85.5969 205.03 -85.5969C204.697 -85.5969 204.347 -85.5969 204.014 -85.5953H204.015C113.228 -85.3325 27.9799 -49.7312 -36.031 14.6495C-100.04 79.0317 -135.147 164.487 -134.884 255.273C-134.621 346.058 -99.0195 431.308 -34.6388 495.319C29.5081 559.093 114.556 594.177 204.97 594.172C205.303 594.172 205.653 594.172 205.985 594.17C296.772 593.908 382.02 558.306 446.031 493.926C510.039 429.545 545.147 344.09 544.884 253.302C544.621 162.517 509.018 77.2666 444.639 13.2573ZM439.964 487.403C377.697 550.165 294.715 584.922 206.306 585.27C205.854 585.272 205.413 585.273 204.963 585.273C117.06 585.269 34.322 551.2 -28.1164 489.252C-90.8771 426.985 -125.635 344.003 -125.983 255.594C-126.333 167.185 -92.2327 83.9327 -29.964 21.1704C32.3032 -41.5904 115.285 -76.3466 203.693 -76.6965C204.14 -76.6981 204.588 -76.6996 205.036 -76.6996C292.945 -76.6996 375.674 -42.6295 438.116 19.3228C500.877 81.5915 535.635 164.572 535.983 252.981C536.333 341.39 502.233 424.642 439.964 487.403ZM439.192 18.2378C376.143 -44.3182 292.532 -78.5166 203.688 -78.2247C114.87 -77.8733 31.507 -42.9566 -31.049 20.0946C-93.605 83.1457 -127.863 166.783 -127.512 255.6C-127.162 344.419 -92.2434 427.781 -29.1922 490.337C33.5395 552.575 116.648 586.801 204.963 586.801C205.412 586.801 205.863 586.8 206.312 586.798C295.13 586.448 378.493 551.532 441.049 488.481C503.605 425.428 537.863 341.792 537.512 252.975C537.162 164.158 502.243 80.7938 439.192 18.2378ZM434.982 481.96C374.17 543.391 293.073 577.464 206.633 577.9C206.078 577.903 205.53 577.904 204.973 577.904C27.2937 577.901 -117.713 433.806 -118.611 255.921C-119.513 77.4821 24.9265 -68.4228 203.367 -69.3229C203.922 -69.3259 204.47 -69.3275 205.027 -69.3275C382.708 -69.3275 527.713 74.7695 528.611 252.654C529.047 339.094 495.796 420.53 434.982 481.96ZM433.747 23.2182C372.426 -37.4871 291.267 -70.8557 205.045 -70.8557C204.484 -70.8557 203.92 -70.8542 203.358 -70.8511C24.0753 -69.9464 -121.044 76.6462 -120.139 255.929C-119.236 434.664 26.4379 579.432 204.973 579.432C205.52 579.432 206.095 579.431 206.642 579.428C385.925 578.523 531.044 431.929 530.139 252.646C529.701 165.799 495.467 84.3194 433.747 23.2182ZM430 476.516C370.643 536.616 291.431 570.003 206.96 570.527C206.291 570.532 205.638 570.532 204.969 570.532C31.5085 570.523 -110.163 429.951 -111.239 256.248C-112.32 81.8727 28.6645 -60.8703 203.04 -61.9523C203.709 -61.9569 204.362 -61.9584 205.03 -61.9584C378.491 -61.9584 520.162 78.6237 521.239 252.327C521.762 336.797 489.36 416.416 430 476.516ZM205.03 -63.4866C204.37 -63.4866 203.693 -63.4836 203.031 -63.4805C27.8148 -62.394 -113.854 81.0398 -112.767 256.257C-111.685 430.812 30.6558 572.06 204.969 572.06C205.63 572.06 206.306 572.06 206.969 572.056C291.848 571.53 371.442 537.981 431.088 477.591C490.736 417.2 523.293 337.196 522.767 252.318C521.685 77.7633 379.344 -63.4866 205.03 -63.4866ZM207.287 563.154C206.508 563.16 205.743 563.163 204.966 563.163C35.7172 563.154 -102.611 426.105 -103.865 256.574C-104.478 174.073 -72.9237 96.2715 -15.0196 37.5025C42.8876 -21.2666 120.214 -53.9674 202.715 -54.5787C203.494 -54.5848 204.26 -54.5878 205.037 -54.5878C374.284 -54.5878 512.611 82.4702 513.867 252.001C515.129 422.31 377.596 561.893 207.287 563.154ZM202.702 -56.1069C119.792 -55.4941 42.0838 -22.6298 -16.1077 36.4297C-74.2991 95.4906 -106.01 173.676 -105.394 256.586C-104.781 339.495 -71.9166 417.203 -12.8571 475.396C45.6445 533.036 122.9 564.694 204.937 564.691C205.721 564.691 206.514 564.688 207.299 564.682C378.45 563.415 516.662 423.142 515.395 251.989C514.128 80.8366 373.887 -57.3142 202.702 -56.1069ZM207.614 555.782C206.714 555.789 205.824 555.794 204.926 555.794C125.396 555.791 50.4569 525.146 -6.34082 469.324C-63.7788 412.872 -95.7965 337.433 -96.4949 256.901C-97.936 90.6569 36.1421 -45.7654 202.386 -47.2065C203.28 -47.2142 204.15 -47.2188 205.04 -47.2188C370.071 -47.2188 505.061 86.3229 506.495 251.674C507.934 417.92 373.858 554.342 207.614 555.782ZM205.04 -48.7455C204.156 -48.7455 203.26 -48.7424 202.374 -48.7348C35.2863 -47.286 -99.4703 89.827 -98.0231 256.915C-97.3216 337.855 -65.142 413.677 -7.41211 470.414C49.6759 526.522 124.988 557.322 204.926 557.322C205.823 557.322 206.728 557.317 207.626 557.31C374.714 555.863 509.47 418.748 508.023 251.661C506.582 85.4609 370.921 -48.7455 205.04 -48.7455ZM415.054 460.184C360.058 516.293 286.502 547.624 207.94 548.41C206.94 548.42 205.95 548.425 204.953 548.425C44.1316 548.42 -87.5105 418.409 -89.1228 257.228C-90.7427 95.0475 39.8816 -38.213 202.06 -39.8344C203.06 -39.8451 204.049 -39.8497 205.045 -39.8497C365.867 -39.8497 497.51 90.1678 499.123 251.347C499.908 329.91 470.052 404.077 415.054 460.184ZM202.045 -41.3626C39.0243 -39.7336 -92.2785 94.2207 -90.651 257.243C-89.8609 336.214 -58.3659 410.15 -1.96707 465.434C53.7089 520.008 127.072 549.953 204.917 549.953C205.927 549.953 206.942 549.948 207.955 549.938C286.925 549.148 360.864 517.654 416.147 461.255C471.43 404.855 501.44 330.304 500.651 251.332C499.02 88.3111 365.118 -42.9428 202.045 -41.3626ZM208.267 541.039C207.157 541.051 206.058 541.057 204.953 541.057C48.3433 541.051 -79.9626 414.558 -81.7506 257.553C-83.5509 99.4395 43.6181 -30.6621 201.733 -32.4623C202.857 -32.4761 203.969 -32.4822 205.091 -32.4822C280.437 -32.4822 351.479 -3.54388 405.454 49.2147C460.231 102.757 490.876 174.428 491.751 251.022C493.551 409.136 366.382 539.237 208.267 541.039ZM406.522 48.1221C352.255 -4.9208 280.845 -34.0104 205.091 -34.0104C203.969 -34.0104 202.84 -34.0043 201.717 -33.9905C42.7592 -32.1796 -85.0883 98.6143 -83.2789 257.572C-81.4801 415.421 47.4952 542.586 204.952 542.586C206.055 542.586 207.178 542.578 208.283 542.567C367.241 540.756 495.088 409.961 493.279 251.003C492.4 174.001 461.59 101.95 406.522 48.1221ZM405.09 449.297C353.001 502.743 283.218 532.707 208.592 533.665C207.357 533.682 206.133 533.69 204.901 533.69C131.648 533.687 62.5512 505.606 9.99123 454.378C-43.4551 402.289 -73.4188 332.505 -74.3785 257.88C-75.3367 183.256 -47.1793 112.724 4.90991 59.278C56.9992 5.83172 126.782 -24.1305 201.408 -25.0902C202.643 -25.1055 203.868 -25.1147 205.099 -25.1147C278.354 -25.1147 347.449 2.96937 400.009 54.1967C453.455 106.286 483.419 176.07 484.377 250.695C485.337 325.319 457.179 395.852 405.09 449.297ZM485.905 250.676C484.942 175.642 454.815 105.476 401.077 53.1025C347.339 0.729019 276.471 -27.5888 201.388 -26.6184C126.356 -25.6541 56.1892 4.47314 3.8157 58.2113C-48.5578 111.95 -76.8695 182.866 -75.9067 257.899C-74.9409 332.933 -44.8152 403.099 8.92299 455.473C61.7748 506.984 131.241 535.22 204.901 535.218C206.135 535.218 207.376 535.21 208.612 535.193C283.644 534.231 353.811 504.104 406.184 450.365C458.558 396.627 486.869 325.709 485.905 250.676ZM208.919 526.293C207.582 526.313 206.274 526.322 204.943 526.322C56.7638 526.308 -64.8639 406.854 -67.0049 258.206C-68.0532 185.55 -40.744 116.837 9.89189 64.7215C60.5263 12.6063 128.426 -16.6713 201.081 -17.7181C202.418 -17.738 203.726 -17.7471 205.057 -17.7471C353.235 -17.7471 474.864 101.721 477.006 250.369C479.167 400.354 358.904 524.132 208.919 526.293ZM205.059 -19.2753C203.728 -19.2753 202.394 -19.2662 201.06 -19.2463C127.995 -18.1934 59.7163 11.2477 8.79463 63.6564C-42.124 116.065 -69.5876 185.165 -68.5331 258.229C-66.3798 407.719 55.9187 527.85 204.941 527.85C206.272 527.85 207.606 527.841 208.941 527.821C359.768 525.648 480.708 401.174 478.535 250.346C476.38 100.855 354.081 -19.2753 205.059 -19.2753ZM395.126 438.41C345.945 489.196 279.931 517.789 209.245 518.921C207.787 518.945 206.338 518.956 204.883 518.956C135.815 518.955 70.614 492.581 20.8782 444.413C-29.9074 395.232 -58.5004 329.219 -59.6328 258.533C-60.7667 187.845 -34.3072 120.949 14.8754 70.165C64.0549 19.3809 130.069 -9.21205 200.755 -10.346C202.198 -10.3689 203.627 -10.3811 205.063 -10.3811C349.035 -10.3811 467.316 105.566 469.634 250.042C470.768 320.73 444.307 387.626 395.126 438.41ZM200.731 -11.8742C129.637 -10.7341 63.2419 18.0238 13.7766 69.1014C-35.6887 120.18 -62.301 187.462 -61.161 258.556C-60.0209 329.652 -31.2645 396.046 19.8146 445.512C69.8423 493.959 135.41 520.484 204.883 520.484C206.343 520.484 207.807 520.474 209.269 520.449C280.363 519.309 346.76 490.553 396.225 439.474C445.689 388.396 472.303 321.113 471.162 250.019C468.806 103.257 347.435 -14.2246 200.731 -11.8742ZM390.144 432.967C342.418 482.42 278.288 510.328 209.572 511.549C208.022 511.576 206.477 511.59 204.932 511.59C65.166 511.589 -49.7681 399.164 -52.2622 258.858C-54.7807 117.005 58.5763 -0.453835 200.43 -2.97386C201.979 -3.00137 203.525 -3.01512 205.068 -3.01512C344.834 -3.01512 459.768 109.411 462.262 249.717C463.483 318.433 437.872 383.513 390.144 432.967ZM200.402 -4.50209C57.7052 -1.96677 -56.3242 116.189 -53.7904 258.886C-51.2811 400.032 64.3224 513.118 204.932 513.118C206.477 513.118 208.048 513.103 209.599 513.077C278.723 511.848 343.233 483.775 391.244 434.027C439.255 384.281 465.018 318.815 463.79 249.689C461.255 106.992 343.069 -7.04657 200.402 -4.50209ZM385.162 427.523C338.888 475.647 276.645 502.869 209.897 504.177C143.087 505.476 79.8873 480.72 31.7653 434.449C-16.3583 388.176 -43.5819 325.933 -44.8901 259.185C-46.1982 192.438 -21.435 129.174 24.8378 81.052C71.1122 32.9285 133.355 5.70641 200.103 4.39825C201.782 4.36463 203.457 4.34935 205.131 4.34935C270.022 4.34935 331.323 29.0163 378.235 74.1262C426.358 120.399 453.582 182.643 454.89 249.39C456.198 316.139 431.435 379.401 385.162 427.523ZM200.072 2.87005C132.916 4.18584 70.2931 31.5761 23.7375 79.993C-22.8181 128.41 -47.7341 192.059 -46.4183 259.215C-45.101 326.37 -17.7108 388.994 30.7047 435.549C77.9082 480.939 139.575 505.754 204.868 505.754C206.549 505.754 208.242 505.737 209.928 505.705C277.084 504.388 339.707 476.999 386.262 428.584C432.818 380.165 457.734 316.517 456.418 249.361C453.7 110.729 338.691 0.114677 200.072 2.87005ZM380.179 422.08C335.361 468.872 275.002 495.41 210.223 496.805C145.439 498.228 83.9997 474.285 37.2072 429.467C-9.58371 384.649 -36.1212 324.289 -37.5164 259.511C-38.9117 194.731 -14.9982 133.288 29.8214 86.4956C74.6393 39.7031 134.998 13.1656 199.777 11.7704C201.568 11.7322 203.353 11.7123 205.138 11.7123C267.939 11.7123 327.293 35.5295 372.793 79.1082C419.584 123.928 446.121 184.285 447.516 249.064C448.912 313.844 424.998 375.289 380.179 422.08ZM373.849 78.0048C326.764 32.9041 264.962 8.83925 199.745 10.2421C134.558 11.6466 73.8187 38.3522 28.7164 85.438C-16.3827 132.525 -40.4491 194.357 -39.0446 259.543C-37.6402 324.731 -10.9362 385.47 36.1512 430.572C81.9396 474.429 141.662 498.391 204.86 498.391C206.654 498.391 208.458 498.373 210.255 498.333C275.442 496.929 336.181 470.224 381.284 423.137C426.383 376.051 450.449 314.218 449.045 249.032C447.64 183.844 420.936 123.105 373.849 78.0048ZM375.197 416.636C331.832 462.097 273.358 487.95 210.55 489.433C208.665 489.477 206.796 489.5 204.921 489.5C77.7844 489.494 -27.1307 387.612 -30.1443 259.836C-33.2038 130.178 69.7918 22.202 199.45 19.1425C329.058 16.0616 437.086 119.079 440.144 248.739C441.628 311.548 418.561 371.175 375.197 416.636ZM199.415 17.6143C68.9131 20.6936 -34.7519 129.371 -31.6725 259.873C-28.6375 388.486 76.947 491.028 204.921 491.028C206.801 491.028 208.698 491.005 210.585 490.961C273.803 489.469 332.656 463.448 376.303 417.692C419.949 371.934 443.166 311.92 441.673 248.702C438.592 118.2 329.902 14.6067 199.415 17.6143ZM370.213 411.194C328.303 455.324 271.715 480.493 210.875 482.06C150.006 483.641 92.2245 461.411 48.0942 419.5C3.96394 377.59 -21.2042 321.002 -22.7722 260.162C-24.3417 199.322 -2.12447 141.513 39.7869 97.3826C81.6967 53.2523 138.285 28.0841 199.125 26.5146C201.119 26.4626 203.101 26.4382 205.083 26.4382C328.015 26.4382 429.584 124.811 432.774 248.413C434.342 309.253 412.124 367.064 370.213 411.194ZM199.087 24.9864C137.837 26.5666 80.8699 51.9029 38.6774 96.3296C-3.51361 140.755 -25.8806 198.952 -24.3004 260.202C-22.7202 321.45 2.61606 378.417 47.0428 420.609C90.001 461.408 145.827 483.667 204.846 483.667C206.862 483.667 208.892 483.641 210.913 483.589C272.163 482.009 329.13 456.672 371.323 412.246C413.514 367.82 435.881 309.621 434.302 248.373C431.041 121.936 325.517 21.716 199.087 24.9864ZM365.233 405.749C324.775 448.55 270.072 473.033 211.202 474.688C152.319 476.337 96.337 454.976 53.5377 414.52C10.7385 374.063 -13.745 319.361 -15.4016 260.488C-18.8202 138.959 77.2709 37.3053 198.798 33.8867C200.905 33.8271 202.991 33.7981 205.085 33.7981C323.807 33.7981 422.041 128.664 425.402 248.088C427.058 306.958 405.688 362.95 365.233 405.749ZM198.756 32.3585C76.3846 35.8016 -20.3714 138.16 -16.9298 260.53C-13.5448 380.789 85.3583 476.305 204.914 476.305C207.015 476.305 209.13 476.276 211.244 476.217C270.523 474.549 325.605 449.896 366.342 406.8C407.078 363.705 428.596 307.324 426.93 248.045C423.485 125.673 321.081 28.946 198.756 32.3585ZM360.249 400.307C321.245 441.777 268.428 465.574 211.525 467.315C154.654 469.063 100.449 448.539 58.9797 409.536C17.5116 370.533 -6.28581 317.716 -8.02797 260.813C-9.77167 203.911 10.7477 149.736 49.7508 108.268C88.7555 66.7999 141.572 43.0025 198.474 41.2588C315.88 37.6736 414.429 130.297 418.028 247.761C419.772 304.664 399.252 358.839 360.249 400.307ZM198.426 39.7306C141.117 41.4865 87.9211 65.4551 48.6383 107.221C9.35548 148.987 -11.3121 203.551 -9.55618 260.86C-7.80028 318.17 16.1683 371.366 57.9344 410.648C98.0592 448.391 149.993 468.947 204.833 468.947C207.071 468.947 209.324 468.912 211.574 468.843C268.883 467.089 322.079 443.12 361.362 401.354C400.644 359.588 421.312 305.024 419.556 247.715C415.931 129.408 316.773 36.1194 198.426 39.7306ZM355.266 394.864C317.717 435.002 266.785 458.115 211.852 459.944C156.917 461.793 104.56 442.102 64.4248 404.554C24.2862 367.004 1.17342 316.072 -0.655853 261.139C-2.48819 206.207 17.1861 153.849 54.7343 113.712C92.2841 73.5745 143.217 50.4602 198.15 48.6309C200.497 48.553 202.837 48.5133 205.173 48.5133C257.532 48.5133 307.154 68.076 345.577 104.021C385.714 141.571 408.827 192.503 410.656 247.437C412.487 302.368 392.815 354.727 355.266 394.864ZM198.098 47.1042C142.757 48.9473 91.4467 72.2312 53.6172 112.668C15.7893 153.103 -4.0271 205.849 -2.18407 261.191C1.54324 373.096 93.7634 461.589 204.909 461.589C207.229 461.589 209.567 461.55 211.904 461.472C326.144 457.666 415.989 361.626 412.184 247.385C408.379 133.144 312.353 43.2623 198.098 47.1042ZM350.284 389.422C314.187 428.228 265.141 450.656 212.176 452.572C209.741 452.661 207.325 452.705 204.906 452.705C98.7913 452.699 10.5842 368.363 6.71626 261.464C2.75818 152.129 88.4896 59.9596 197.824 56.0015C307.15 52.0343 399.327 137.776 403.284 247.111C405.202 300.074 386.379 350.614 350.284 389.422ZM205.094 54.3434C202.664 54.3434 200.216 54.3862 197.768 54.4748C87.5925 58.4635 1.20093 151.344 5.18805 261.519C9.08806 369.249 97.9645 454.233 204.906 454.233C207.336 454.233 209.784 454.189 212.232 454.1C265.604 452.167 315.029 429.568 351.402 390.461C387.777 351.357 406.744 300.426 404.812 247.056C400.912 139.326 312.036 54.3434 205.094 54.3434ZM345.302 383.978C310.659 421.455 263.496 443.196 212.501 445.2C209.931 445.301 207.376 445.351 204.816 445.351C156.633 445.348 110.896 427.483 75.3103 394.588C37.8338 359.947 16.0919 312.785 14.0884 261.79C12.0849 210.795 30.0567 162.072 64.6998 124.597C99.3415 87.1206 146.504 65.3787 197.499 63.3752C200.043 63.2743 202.571 63.2254 205.096 63.2254C307.014 63.2254 391.876 144.06 395.913 246.786C397.917 297.781 379.943 346.503 345.302 383.978ZM197.439 61.8485C146.036 63.8672 98.4963 85.7834 63.5781 123.559C28.6584 161.334 10.5414 210.446 12.5602 261.849C14.5804 313.252 36.4966 360.79 74.2726 395.71C110.146 428.869 156.242 446.879 204.814 446.879C207.389 446.879 209.974 446.829 212.561 446.728C263.964 444.708 311.504 422.792 346.422 385.016C381.342 347.24 399.46 298.127 397.441 246.726C393.269 140.616 303.601 57.6856 197.439 61.8485ZM212.827 437.828C210.171 437.941 207.536 437.997 204.903 437.997C107.183 437.991 25.6615 360.664 21.459 262.115C17.1433 160.911 95.9687 75.063 197.173 70.7473C298.373 66.4423 384.224 145.255 388.541 246.46C392.857 347.666 314.031 433.512 212.827 437.828ZM197.108 69.2206C95.0624 73.573 15.5814 160.134 19.9307 262.181C24.17 361.555 106.362 439.526 204.903 439.526C207.551 439.526 210.22 439.469 212.892 439.356C314.938 435.004 394.419 348.442 390.069 246.394C385.717 144.349 299.151 64.8713 197.108 69.2206ZM335.335 373.094C303.6 407.907 260.208 428.28 213.151 430.456C166.092 432.618 121.007 416.355 86.1942 384.621C51.3814 352.888 31.0088 309.494 28.8311 262.439C24.3366 165.3 99.7113 82.6139 196.849 78.1194C293.978 73.6341 376.673 148.997 381.169 246.136C383.347 293.193 367.07 338.281 335.335 373.094ZM196.777 76.5927C98.7974 81.1254 22.7717 164.529 27.3059 262.509C29.5004 309.973 50.0488 353.741 85.1642 385.751C118.198 415.863 160.401 432.177 204.804 432.177C207.6 432.177 210.409 432.112 213.223 431.981C260.686 429.786 304.454 409.24 336.464 374.123C368.474 339.007 384.892 293.531 382.694 246.066C378.161 148.084 294.793 72.0723 196.777 76.5927ZM213.476 423.085C210.602 423.229 207.752 423.301 204.903 423.301C115.571 423.294 40.7328 352.963 36.2032 262.763C31.5299 169.689 103.449 90.1648 196.524 85.4915C289.618 80.7968 369.124 152.738 373.797 245.812C378.47 338.887 306.551 418.41 213.476 423.085ZM196.446 83.9648C102.531 88.6809 29.9619 168.924 34.678 262.839C39.2474 353.86 114.755 424.829 204.903 424.829C207.77 424.829 210.658 424.757 213.554 424.61C307.469 419.894 380.038 339.651 375.322 245.736C370.606 151.819 290.397 79.2304 196.446 83.9648ZM325.368 362.209C296.539 394.361 256.919 413.363 213.8 415.713C170.703 418.065 129.229 403.483 97.0781 374.656C64.9275 345.828 45.9257 306.206 43.5753 263.087C38.7232 174.079 107.19 97.7157 196.2 92.8621C285.179 88.0314 361.571 156.477 366.425 245.488C368.775 288.605 354.194 330.058 325.368 362.209ZM196.116 91.3369C106.266 96.2364 37.1522 173.321 42.0501 263.171C44.4235 306.696 63.6041 346.694 96.0588 375.793C126.249 402.862 164.56 417.487 204.796 417.486C207.814 417.486 210.846 417.403 213.883 417.238C257.409 414.865 297.406 395.684 326.505 363.23C355.605 330.775 370.323 288.929 367.95 245.404C363.052 155.554 285.979 86.4207 196.116 91.3369ZM214.126 408.341C211.03 408.524 207.962 408.613 204.903 408.613C123.949 408.605 55.7949 345.261 50.9474 263.411C48.5114 222.262 62.244 182.628 89.6174 151.807C116.989 120.987 154.727 102.673 195.876 100.234C280.826 95.2186 354.022 160.22 359.054 245.164C364.085 330.108 299.07 403.31 214.126 408.341ZM195.787 98.7091C154.229 101.171 116.118 119.669 88.4743 150.792C60.8289 181.919 46.9603 221.946 49.4223 263.503C54.3171 346.167 123.14 410.141 204.901 410.141C207.987 410.141 211.094 410.051 214.214 409.866C300.001 404.785 365.659 330.859 360.579 245.072C355.496 159.286 281.534 93.6247 195.787 98.7091ZM315.399 351.326C289.479 380.815 253.627 398.444 214.448 400.967C211.244 401.174 208.068 401.276 204.901 401.276C128.13 401.271 63.3229 341.413 58.3195 263.735C53.1098 182.856 114.674 112.816 195.552 107.608C276.442 102.38 346.471 163.961 351.68 244.84C354.205 284.021 341.319 321.838 315.399 351.326ZM195.454 106.081C113.733 111.346 51.5312 182.113 56.7928 263.834C61.8497 342.322 127.326 402.804 204.9 402.804C208.094 402.804 211.314 402.7 214.546 402.492C254.133 399.945 290.358 382.13 316.547 352.335C342.737 322.539 355.755 284.329 353.206 244.741C347.942 163.022 277.229 100.816 195.454 106.081ZM310.416 345.884C285.949 374.042 251.981 390.987 214.771 393.595C137.958 399.007 71.0801 340.873 65.6916 264.059C60.3031 187.243 118.415 120.365 195.229 114.978C198.539 114.746 201.828 114.632 205.097 114.632C277.69 114.632 339.152 171.012 344.308 244.516C346.919 281.728 334.882 317.727 310.416 345.884ZM195.122 113.453C117.468 118.9 58.7199 186.51 64.1665 264.166C69.3792 338.48 131.506 395.478 204.901 395.47C208.201 395.47 211.535 395.356 214.878 395.12C252.495 392.483 286.835 375.353 311.568 346.888C336.304 318.422 348.473 282.028 345.833 244.409C340.387 166.754 272.789 108.011 195.122 113.453ZM215.093 386.225C142.31 391.806 78.6295 337.129 73.0622 264.381C70.3664 229.139 81.556 194.958 104.569 168.131C127.583 141.305 159.665 125.046 194.905 122.351C267.662 116.776 331.37 171.445 336.938 244.194C342.504 316.944 287.844 380.659 215.093 386.225ZM194.789 120.827C159.141 123.553 126.689 140 103.408 167.136C80.1302 194.273 68.8123 228.849 71.5386 264.498C76.9057 334.634 135.692 388.147 204.906 388.144C208.315 388.144 211.757 388.014 215.211 387.75C288.801 382.118 344.091 317.669 338.461 244.078C332.831 170.486 268.37 115.209 194.789 120.827ZM300.445 335.003C278.885 360.499 248.688 376.071 215.414 378.854C182.155 381.629 149.779 371.294 124.285 349.734C98.7897 328.174 83.2172 297.976 80.4344 264.702C77.653 231.43 87.9944 199.065 109.555 173.572C131.115 148.077 161.312 132.504 194.586 129.723C227.845 126.944 260.221 137.283 285.715 158.841C311.21 180.401 326.783 210.6 329.566 243.873C332.347 277.145 322.006 309.51 300.445 335.003ZM286.702 157.675C260.897 135.851 228.135 125.379 194.458 128.201C160.777 131.016 130.211 146.778 108.387 172.585C86.564 198.39 76.0957 231.15 78.9122 264.829C81.7287 298.51 97.4908 329.077 123.298 350.901C146.346 370.394 174.942 380.827 204.787 380.827C208.357 380.827 211.945 380.677 215.542 380.376C249.221 377.56 279.789 361.798 301.613 335.991C323.436 310.185 333.904 277.425 331.088 243.746C328.271 210.066 312.509 179.498 286.702 157.675ZM295.46 329.564C275.354 353.727 247.042 368.615 215.736 371.482C184.431 374.35 153.887 364.855 129.724 344.747C105.561 324.641 90.6734 296.327 87.8065 265.025C81.8861 200.403 129.641 143.014 194.264 137.093C258.864 131.162 316.273 178.93 322.194 243.55C325.062 274.854 315.569 305.402 295.46 329.564ZM194.123 135.571C128.665 141.569 80.2892 199.704 86.2843 265.164C89.191 296.874 104.27 325.554 128.747 345.922C150.361 363.908 177.016 373.511 204.79 373.511C208.468 373.511 212.168 373.342 215.877 373.004C247.586 370.097 276.268 355.018 296.636 330.541C317.004 306.065 326.621 275.122 323.717 243.411C317.717 177.952 259.598 129.584 194.123 135.571ZM290.475 324.124C271.822 346.957 245.393 361.157 216.057 364.11C155.494 370.198 101.275 325.901 95.177 265.344C92.223 236.01 100.87 207.281 119.525 184.451C138.178 161.62 164.607 147.419 193.943 144.465C254.512 138.366 308.724 182.675 314.823 243.231C317.775 272.565 309.13 301.294 290.475 324.124ZM193.79 142.945C164.049 145.94 137.253 160.336 118.342 183.484C99.4285 206.63 90.6627 235.756 93.658 265.499C99.4561 323.1 148.211 366.199 204.917 366.197C208.65 366.197 212.417 366.011 216.21 365.629C245.951 362.635 272.747 348.239 291.658 325.091C310.571 301.945 319.337 272.817 316.342 243.077C310.16 181.684 255.201 136.754 193.79 142.945ZM216.377 356.738C159.894 363.013 108.824 322.156 102.549 265.665C96.2759 209.173 137.133 158.109 193.625 151.836C197.471 151.41 201.292 151.2 205.077 151.2C256.862 151.2 301.604 190.266 307.451 242.91C313.724 299.402 272.869 350.466 216.377 356.738ZM193.454 150.317C136.127 156.683 94.6651 208.504 101.03 265.833C106.964 319.261 152.366 358.908 204.921 358.902C208.76 358.902 212.645 358.689 216.548 358.257C273.874 351.892 315.335 300.071 308.97 242.742C302.605 185.414 250.823 143.963 193.454 150.317ZM216.695 349.369C212.74 349.855 208.82 350.09 204.932 350.09C157.285 350.087 115.884 314.455 109.92 265.983C106.796 240.587 113.749 215.494 129.499 195.326C145.248 175.16 167.908 162.332 193.305 159.208C245.728 152.761 293.63 190.165 300.08 242.592C306.529 295.019 269.123 342.918 216.695 349.369ZM193.117 157.691C167.316 160.865 144.294 173.896 128.295 194.386C112.293 214.875 105.23 240.369 108.404 266.169C114.462 315.418 156.521 351.618 204.93 351.618C208.878 351.618 212.867 351.378 216.883 350.885C270.147 344.333 308.149 295.669 301.596 242.406C295.045 189.143 246.396 151.138 193.117 157.691ZM275.514 307.813C261.216 326.649 240.44 338.789 217.013 341.998C193.579 345.206 170.31 339.099 151.475 324.803C132.64 310.505 120.5 289.728 117.29 266.301C114.083 242.872 120.189 219.597 134.486 200.762C148.784 181.927 169.56 169.788 192.987 166.579C197.066 166.021 201.139 165.744 205.184 165.744C224.383 165.744 242.969 171.966 258.525 183.774C277.36 198.071 289.5 218.847 292.71 242.274C295.917 265.703 289.811 288.978 275.514 307.813ZM259.45 182.556C240.289 168.012 216.612 161.801 192.781 165.064C168.947 168.328 147.813 180.678 133.268 199.839C118.725 218.998 112.513 242.675 115.777 266.509C119.042 290.34 131.391 311.475 150.55 326.019C166.378 338.032 185.282 344.361 204.813 344.359C208.927 344.359 213.073 344.079 217.219 343.511C241.053 340.247 262.188 327.897 276.731 308.736C291.275 289.577 297.487 265.9 294.223 242.066C290.958 218.235 278.609 197.1 259.45 182.556ZM270.526 302.377C257.68 319.88 238.787 331.334 217.327 334.626C195.871 337.915 174.41 332.658 156.909 319.813C139.407 306.968 127.956 288.075 124.662 266.616C121.369 245.156 126.631 223.699 139.475 206.198C152.32 188.695 171.213 177.241 192.673 173.949C196.832 173.31 200.962 173.002 205.048 173.002C244.465 173.002 279.179 201.821 285.339 241.959C288.632 263.419 283.371 284.876 270.526 302.377ZM192.439 172.438C147.309 179.364 116.225 221.715 123.151 266.848C129.427 307.743 164.787 337.102 204.95 337.102C209.11 337.102 213.323 336.787 217.561 336.137C262.692 329.211 293.776 286.858 286.85 241.727C279.922 196.596 237.576 165.52 192.439 172.438ZM265.535 296.946C254.141 313.116 237.132 323.879 217.641 327.257C198.148 330.633 178.512 326.216 162.342 314.822C146.174 303.427 135.409 286.418 132.032 266.927C128.656 247.438 133.071 227.799 144.465 211.629C155.859 195.459 172.869 184.696 192.359 181.318C196.62 180.582 200.853 180.226 205.038 180.226C240.368 180.226 271.736 205.672 277.97 241.648C281.346 261.137 276.929 280.776 265.535 296.946ZM192.1 179.813C172.205 183.259 154.846 194.245 143.215 210.749C131.587 227.253 127.08 247.296 130.528 267.189C133.972 287.082 144.959 304.442 161.462 316.072C174.349 325.154 189.393 329.891 204.839 329.89C209.173 329.89 213.543 329.517 217.9 328.762C237.795 325.316 255.154 314.33 266.785 297.826C278.415 281.323 282.921 261.279 279.474 241.386C272.36 200.322 233.164 172.701 192.1 179.813ZM217.952 319.888C213.595 320.748 209.258 321.161 204.978 321.161C173.706 321.158 145.683 299.054 139.399 267.239C132.259 231.066 155.876 195.829 192.048 188.687C228.236 181.544 263.458 205.166 270.601 241.336C277.741 277.509 254.124 312.746 217.952 319.888ZM191.753 187.188C154.755 194.493 130.596 230.536 137.901 267.534C144.326 300.079 172.989 322.689 204.976 322.689C209.355 322.689 213.794 322.266 218.247 321.387C255.245 314.082 279.404 278.039 272.099 241.041C264.795 204.043 228.748 179.888 191.753 187.188ZM255.551 286.09C247.056 299.593 233.812 308.979 218.257 312.52C186.158 319.828 154.079 299.654 146.767 267.545C143.226 251.991 145.954 235.987 154.45 222.485C162.944 208.982 176.188 199.596 191.743 196.055C196.188 195.043 200.629 194.559 205.007 194.559C232.253 194.559 256.933 213.367 263.232 241.03C266.774 256.584 264.046 272.588 255.551 286.09ZM191.404 194.565C175.451 198.196 161.868 207.824 153.156 221.671C144.444 235.52 141.646 251.931 145.278 267.883C151.736 296.257 177.048 315.545 204.993 315.545C209.482 315.545 214.04 315.048 218.596 314.01C234.549 310.379 248.133 300.751 256.846 286.904C265.556 273.056 268.355 256.644 264.722 240.693C257.226 207.761 224.333 187.066 191.404 194.565ZM250.555 280.669C243.507 292.838 232.145 301.534 218.558 305.154C190.498 312.632 161.609 295.89 154.134 267.844C150.512 254.257 152.398 240.074 159.445 227.906C166.493 215.737 177.855 207.041 191.444 203.421C205.03 199.801 219.213 201.686 231.382 208.733C243.55 215.78 252.246 227.143 255.866 240.731C259.488 254.318 257.602 268.501 250.555 280.669ZM232.148 207.411C219.627 200.158 205.03 198.216 191.05 201.945C177.068 205.67 165.374 214.618 158.123 227.139C150.871 239.661 148.931 254.255 152.656 268.239C159.11 292.446 181.067 308.466 205.013 308.464C209.616 308.464 214.297 307.871 218.952 306.63C232.932 302.905 244.626 293.957 251.877 281.436C259.129 268.914 261.07 254.318 257.344 240.336C253.616 226.355 244.669 214.661 232.148 207.411ZM245.557 275.258C239.954 286.09 230.47 294.093 218.849 297.793C207.23 301.493 194.864 300.446 184.031 294.843C173.197 289.242 165.195 279.757 161.495 268.136C157.796 256.516 158.844 244.151 164.445 233.317C170.046 222.485 179.53 214.482 191.149 210.782C195.74 209.321 200.39 208.628 204.969 208.628C224.32 208.628 242.329 221.04 248.504 240.437C252.204 252.058 251.157 264.424 245.557 275.258ZM226.671 212.375C215.475 206.584 202.693 205.504 190.688 209.326C178.677 213.15 168.875 221.42 163.086 232.616C157.299 243.812 156.216 256.591 160.039 268.601C163.863 280.611 172.133 290.413 183.329 296.2C190.128 299.717 197.508 301.496 204.947 301.496C209.758 301.496 214.596 300.75 219.313 299.249C231.323 295.426 241.125 287.155 246.914 275.959C252.703 264.763 253.785 251.983 249.961 239.974C246.137 227.964 237.867 218.162 226.671 212.375ZM219.131 290.436C209.475 294.211 198.929 294 189.43 289.841C179.935 285.682 172.625 278.074 168.852 268.419C165.076 258.762 165.289 248.214 169.447 238.718C173.605 229.222 181.214 221.912 190.869 218.139C210.799 210.345 233.358 220.224 241.149 240.156C248.942 260.09 239.063 282.645 219.131 290.436ZM190.315 216.715C180.277 220.638 172.369 228.235 168.047 238.105C163.724 247.976 163.505 258.938 167.428 268.975C171.351 279.011 178.948 286.918 188.819 291.241C194.005 293.512 199.492 294.651 204.989 294.651C209.952 294.651 214.923 293.722 219.685 291.86C229.723 287.937 237.631 280.341 241.953 270.47C246.276 260.599 246.495 249.637 242.573 239.6C234.472 218.882 211.027 208.617 190.315 216.715ZM219.395 283.093C203.512 291.029 184.133 284.565 176.194 268.682C168.258 252.799 174.722 233.42 190.605 225.482C195.214 223.181 200.115 222.09 204.947 222.09C216.77 222.09 228.17 228.618 233.806 239.893C241.742 255.776 235.278 275.155 219.395 283.093ZM189.922 224.116C173.286 232.43 166.514 252.729 174.828 269.366C180.73 281.177 192.671 288.014 205.054 288.014C210.116 288.014 215.252 286.871 220.078 284.459C228.138 280.432 234.145 273.508 236.996 264.961C239.849 256.415 239.199 247.268 235.172 239.209C226.859 222.574 206.558 215.801 189.922 224.116ZM230.54 259.132C229.246 265.954 225.372 271.864 219.633 275.773C213.893 279.682 206.975 281.123 200.156 279.827C193.333 278.533 187.423 274.66 183.514 268.922C175.447 257.074 178.52 240.871 190.367 232.802C194.731 229.83 199.777 228.285 204.946 228.285C206.572 228.285 208.212 228.438 209.844 228.748C216.667 230.042 222.577 233.915 226.486 239.653C230.394 245.393 231.835 252.31 230.54 259.132ZM210.128 227.246C202.904 225.88 195.581 227.4 189.506 231.54C176.963 240.083 173.707 257.237 182.252 269.781C186.39 275.858 192.648 279.958 199.872 281.329C201.6 281.656 203.335 281.82 205.057 281.82C210.53 281.818 215.872 280.183 220.494 277.035C226.57 272.897 230.672 266.64 232.041 259.416C233.412 252.194 231.887 244.869 227.748 238.794C223.61 232.717 217.352 228.617 210.128 227.246ZM219.84 268.503C212.003 276.685 198.967 276.965 190.784 269.127C186.82 265.33 184.573 260.217 184.455 254.729C184.336 249.241 186.364 244.035 190.16 240.072C197.997 231.89 211.033 231.609 219.216 239.449C223.179 243.245 225.427 248.358 225.545 253.846C225.662 259.334 223.636 264.539 219.84 268.503ZM189.055 239.015C184.977 243.272 182.8 248.865 182.927 254.761C183.054 260.657 185.469 266.151 189.728 270.23C193.999 274.322 199.499 276.355 204.996 276.355C210.808 276.355 216.615 274.079 220.945 269.561C225.023 265.303 227.2 259.71 227.073 253.814C226.946 247.918 224.531 242.424 220.272 238.345C211.485 229.926 197.482 230.223 189.055 239.015Z" fill="url(#paint0_radial_5722_1012)" fill-opacity="0.15"/>
<defs>
<radialGradient id="paint0_radial_5722_1012" cx="0" cy="0" r="1" gradientUnits="userSpaceOnUse" gradientTransform="translate(205 254.288) rotate(90) scale(318.434)">
<stop stop-color="#CCCCCC" stop-opacity="0.01"/>
<stop offset="0.237022" stop-color="#CCCCCC" stop-opacity="0.3"/>
<stop offset="0.432108" stop-color="#CCCCCC"/>
<stop offset="0.784862" stop-color="#CCCCCC" stop-opacity="0.169213"/>
<stop offset="1" stop-color="#CCCCCC" stop-opacity="0"/>
</radialGradient>
</defs>
</svg>
