<svg width="35" height="35" viewBox="0 0 35 35" fill="none" xmlns="http://www.w3.org/2000/svg">
<path d="M7.48897 21.5135H2.51815C1.6032 21.5135 0.861206 22.2378 0.861206 23.1309V27.983C0.861206 28.8761 1.6032 29.6004 2.51815 29.6004H7.48897C8.40391 29.6004 9.1459 28.8761 9.1459 27.983V23.1309C9.1459 22.2378 8.40391 21.5135 7.48897 21.5135ZM6.24626 17.4701H16.1879V19.8961H18.6733V17.4701H28.6149V19.8961H31.1004V16.9854C31.1004 15.9154 30.2082 15.044 29.1115 15.044H18.6733V11.8093H20.7445C21.6594 11.8093 22.4014 11.085 22.4014 10.1919V5.33978C22.4014 4.44669 21.6594 3.72241 20.7445 3.72241H14.1167C13.2018 3.72241 12.4598 4.44669 12.4598 5.33978V10.1919C12.4598 11.085 13.2018 11.8093 14.1167 11.8093H16.1879V15.044H5.7497C4.65301 15.044 3.76085 15.9149 3.76085 16.9854V19.8961H6.24626V17.4701ZM19.916 21.5135H14.9452C14.0303 21.5135 13.2883 22.2378 13.2883 23.1309V27.983C13.2883 28.8761 14.0303 29.6004 14.9452 29.6004H19.916C20.831 29.6004 21.573 28.8761 21.573 27.983V23.1309C21.573 22.2378 20.831 21.5135 19.916 21.5135ZM32.3431 21.5135H27.3722C26.4573 21.5135 25.7153 22.2378 25.7153 23.1309V27.983C25.7153 28.8761 26.4573 29.6004 27.3722 29.6004H32.3431C33.258 29.6004 34 28.8761 34 27.983V23.1309C34 22.2378 33.258 21.5135 32.3431 21.5135Z" fill="#A678EC"/>
</svg>
