<svg width="14" height="14" viewBox="0 0 14 14" fill="none" xmlns="http://www.w3.org/2000/svg">
<g clip-path="url(#clip0_5524_81)">
<path d="M11.4445 5.0625H10.3195V3.65625C10.3195 2.83574 9.99357 2.04883 9.41338 1.46864C8.83319 0.888448 8.04628 0.5625 7.22577 0.5625H6.66327C5.84276 0.5625 5.05585 0.888448 4.47566 1.46864C3.89547 2.04883 3.56952 2.83574 3.56952 3.65625V5.0625H2.44452C2.29533 5.0625 2.15226 5.12176 2.04677 5.22725C1.94128 5.33274 1.88202 5.47582 1.88202 5.625V12.375C1.88202 12.5242 1.94128 12.6673 2.04677 12.7727C2.15226 12.8782 2.29533 12.9375 2.44452 12.9375H11.4445C11.5937 12.9375 11.7368 12.8782 11.8423 12.7727C11.9478 12.6673 12.007 12.5242 12.007 12.375V5.625C12.007 5.47582 11.9478 5.33274 11.8423 5.22725C11.7368 5.12176 11.5937 5.0625 11.4445 5.0625ZM4.69452 3.65625C4.69452 3.1341 4.90194 2.63335 5.27115 2.26413C5.64036 1.89492 6.14112 1.6875 6.66327 1.6875H7.22577C7.74791 1.6875 8.24867 1.89492 8.61789 2.26413C8.9871 2.63335 9.19452 3.1341 9.19452 3.65625V5.0625H4.69452V3.65625ZM10.882 11.8125H3.00702V6.1875H10.882V11.8125Z" fill="#8F92A1"/>
<path d="M4.69452 9.84375C5.16051 9.84375 5.53827 9.46599 5.53827 9C5.53827 8.53401 5.16051 8.15625 4.69452 8.15625C4.22853 8.15625 3.85077 8.53401 3.85077 9C3.85077 9.46599 4.22853 9.84375 4.69452 9.84375Z" fill="#8F92A1"/>
<path d="M6.94452 9.84375C7.41051 9.84375 7.78827 9.46599 7.78827 9C7.78827 8.53401 7.41051 8.15625 6.94452 8.15625C6.47853 8.15625 6.10077 8.53401 6.10077 9C6.10077 9.46599 6.47853 9.84375 6.94452 9.84375Z" fill="#8F92A1"/>
<path d="M9.19452 9.84375C9.66051 9.84375 10.0383 9.46599 10.0383 9C10.0383 8.53401 9.66051 8.15625 9.19452 8.15625C8.72853 8.15625 8.35077 8.53401 8.35077 9C8.35077 9.46599 8.72853 9.84375 9.19452 9.84375Z" fill="#8F92A1"/>
</g>
<defs>
<clipPath id="clip0_5524_81">
<rect width="13.5" height="13.5" fill="white" transform="translate(0.475769)"/>
</clipPath>
</defs>
</svg>
