<svg width="35" height="36" viewBox="0 0 35 36" fill="none" xmlns="http://www.w3.org/2000/svg">
<path d="M10.2084 12.6667H5.83335C4.22919 12.6667 2.91669 11.3542 2.91669 9.75002V6.83335C2.91669 5.22919 4.22919 3.91669 5.83335 3.91669H10.2084C11.8125 3.91669 13.125 5.22919 13.125 6.83335V9.75002C13.125 11.3542 11.8125 12.6667 10.2084 12.6667Z" stroke="#A678EC" stroke-width="2.5" stroke-linecap="round" stroke-linejoin="round"/>
<path d="M30.3333 11.2084H25.0833C24.1208 11.2084 23.3333 10.4208 23.3333 9.45834V7.12504C23.3333 6.16254 24.1208 5.37502 25.0833 5.37502H30.3333C31.2958 5.37502 32.0833 6.16254 32.0833 7.12504V9.45834C32.0833 10.4208 31.2958 11.2084 30.3333 11.2084Z" stroke="#A678EC" stroke-width="2.5" stroke-linecap="round" stroke-linejoin="round"/>
<path d="M30.3333 22.1459H25.0833C24.1208 22.1459 23.3333 21.3583 23.3333 20.3958V18.0625C23.3333 17.1 24.1208 16.3125 25.0833 16.3125H30.3333C31.2958 16.3125 32.0833 17.1 32.0833 18.0625V20.3958C32.0833 21.3583 31.2958 22.1459 30.3333 22.1459Z" stroke="#A678EC" stroke-width="2.5" stroke-linecap="round" stroke-linejoin="round"/>
<path d="M13.125 8.29169H23.3333" stroke="#A678EC" stroke-width="2.5" stroke-miterlimit="10" stroke-linecap="round" stroke-linejoin="round"/>
<path d="M18.2292 8.29169V27.25C18.2292 28.8542 19.5417 30.1667 21.1459 30.1667H23.3334" stroke="#A678EC" stroke-width="2.5" stroke-miterlimit="10" stroke-linecap="round" stroke-linejoin="round"/>
<path d="M18.2292 19.2292H23.3334" stroke="#A678EC" stroke-width="2.5" stroke-miterlimit="10" stroke-linecap="round" stroke-linejoin="round"/>
<path d="M30.3333 33.0834H25.0833C24.1208 33.0834 23.3333 32.2958 23.3333 31.3333V29C23.3333 28.0375 24.1208 27.25 25.0833 27.25H30.3333C31.2958 27.25 32.0833 28.0375 32.0833 29V31.3333C32.0833 32.2958 31.2958 33.0834 30.3333 33.0834Z" stroke="#A678EC" stroke-width="2.5" stroke-linecap="round" stroke-linejoin="round"/>
</svg>
