<svg width="10" height="10" viewBox="0 0 10 10" fill="none" xmlns="http://www.w3.org/2000/svg">
<path fill-rule="evenodd" clip-rule="evenodd" d="M8.92814 9.46973H5.47433C5.27719 9.46973 5.11719 9.30173 5.11719 9.09473C5.11719 8.88773 5.27719 8.71973 5.47433 8.71973H8.92814C9.12528 8.71973 9.28528 8.88773 9.28528 9.09473C9.28528 9.30173 9.12528 9.46973 8.92814 9.46973Z" fill="white"/>
<mask id="mask0_5973_331" style="mask-type:luminance" maskUnits="userSpaceOnUse" x="0" y="0" width="9" height="10">
<path fill-rule="evenodd" clip-rule="evenodd" d="M0 0H8.18123V9.46977H0V0Z" fill="white"/>
</mask>
<g mask="url(#mask0_5973_331)">
<path fill-rule="evenodd" clip-rule="evenodd" d="M5.29043 1.0083L0.807102 6.8958C0.725673 7.0028 0.695674 7.1408 0.725673 7.2733L1.04996 8.7158L2.4971 8.6968C2.63472 8.6953 2.76186 8.6308 2.84615 8.5208C4.37805 6.5083 7.29853 2.6713 7.38139 2.5588C7.45948 2.4258 7.48996 2.2378 7.44901 2.0568C7.4071 1.8713 7.2971 1.7138 7.13853 1.6133C7.10472 1.5888 6.30234 0.934796 6.27758 0.914296C5.97567 0.660296 5.5352 0.704296 5.29043 1.0083ZM0.768226 9.46982C0.602988 9.46982 0.459178 9.35082 0.420607 9.18132L0.0306068 7.44582C-0.0498694 7.08632 0.0301306 6.71532 0.249654 6.42732L4.73537 0.536321C4.73727 0.534321 4.7387 0.531821 4.74061 0.529821C5.23251 -0.0876787 6.12204 -0.178679 6.72204 0.326821C6.74585 0.346321 7.54251 0.996321 7.54251 0.996321C7.83204 1.17732 8.05823 1.50082 8.14394 1.88382C8.22918 2.26282 8.16728 2.65382 7.9687 2.98432C7.95394 3.00882 7.94108 3.02982 3.40394 8.98982C3.18537 9.27582 2.85775 9.44232 2.50585 9.44682L0.772988 9.46982H0.768226Z" fill="white"/>
</g>
<path fill-rule="evenodd" clip-rule="evenodd" d="M6.77264 4.34237C6.69645 4.34237 6.62026 4.31687 6.55502 4.26487L3.95883 2.17087C3.80264 2.04487 3.77311 1.80987 3.89311 1.64487C4.01359 1.48087 4.2374 1.45037 4.39407 1.57637L6.99073 3.66987C7.14692 3.79587 7.17645 4.03137 7.05597 4.19587C6.98597 4.29187 6.87978 4.34237 6.77264 4.34237Z" fill="white"/>
</svg>
