<svg width="23" height="23" viewBox="0 0 23 23" fill="none" xmlns="http://www.w3.org/2000/svg">
<path fill-rule="evenodd" clip-rule="evenodd" d="M2.2041 11.7957C2.2041 6.43113 6.55298 2.08224 11.9176 2.08224C17.2822 2.08224 21.631 6.43113 21.631 11.7957C21.631 17.1603 17.2822 21.5093 11.9176 21.5093C6.55298 21.5093 2.2041 17.1603 2.2041 11.7957ZM11.9176 3.47558C7.3225 3.47558 3.59744 7.20064 3.59744 11.7957C3.59744 16.3908 7.3225 20.1159 11.9176 20.1159C16.5126 20.1159 20.2377 16.3908 20.2377 11.7957C20.2377 7.20064 16.5126 3.47558 11.9176 3.47558ZM13.0176 16.1961C13.0176 16.8036 12.5251 17.2961 11.9176 17.2961C11.3101 17.2961 10.8176 16.8036 10.8176 16.1961C10.8176 15.5886 11.3101 15.0961 11.9176 15.0961C12.5251 15.0961 13.0176 15.5886 13.0176 16.1961ZM9.7911 9.9628C9.7911 8.96856 10.6492 8.01947 11.9178 8.01947C13.1863 8.01947 14.0444 8.96856 14.0444 9.9628C14.0444 10.6832 13.6484 11.0512 12.9656 11.466C12.8894 11.5124 12.8015 11.5634 12.7075 11.618C12.4388 11.774 12.1199 11.9592 11.8803 12.1459C11.5249 12.4229 11.1111 12.8697 11.1111 13.5561C11.1111 14.0017 11.4723 14.3628 11.9178 14.3628C12.3612 14.3628 12.7211 14.005 12.7244 13.5623L12.7252 13.561C12.7379 13.5409 12.7756 13.4936 12.8719 13.4186C13.0208 13.3026 13.1865 13.2065 13.4074 13.0785C13.5225 13.0118 13.6527 12.9363 13.8033 12.8449C14.5871 12.3687 15.6577 11.5817 15.6577 9.9628C15.6577 8.02371 14.0226 6.40614 11.9178 6.40614C9.813 6.40614 8.17777 8.02371 8.17777 9.9628C8.17777 10.4083 8.53894 10.7695 8.98444 10.7695C9.42995 10.7695 9.7911 10.4083 9.7911 9.9628Z" fill="url(#paint0_linear_5459_1015)"/>
<defs>
<linearGradient id="paint0_linear_5459_1015" x1="22" y1="18" x2="2" y2="8" gradientUnits="userSpaceOnUse">
<stop stop-color="#57ABE7"/>
<stop offset="1" stop-color="#A678EC"/>
</linearGradient>
</defs>
</svg>
