<svg width="14" height="14" viewBox="0 0 14 14" fill="none" xmlns="http://www.w3.org/2000/svg">
<g clip-path="url(#clip0_5572_293)">
<path d="M12.082 5.26641H10.882V3.79613C10.882 2.93826 10.5343 2.11553 9.91547 1.50892C9.2966 0.902312 8.45723 0.561523 7.58202 0.561523H6.98202C6.1068 0.561523 5.26744 0.902312 4.64857 1.50892C4.0297 2.11553 3.68202 2.93826 3.68202 3.79613V5.26641H2.48202C2.32289 5.26641 2.17028 5.32837 2.05775 5.43866C1.94523 5.54895 1.88202 5.69854 1.88202 5.85452V12.9118C1.88202 13.0678 1.94523 13.2174 2.05775 13.3277C2.17028 13.438 2.32289 13.5 2.48202 13.5H12.082C12.2411 13.5 12.3938 13.438 12.5063 13.3277C12.6188 13.2174 12.682 13.0678 12.682 12.9118V5.85452C12.682 5.69854 12.6188 5.54895 12.5063 5.43866C12.3938 5.32837 12.2411 5.26641 12.082 5.26641ZM4.88202 3.79613C4.88202 3.25021 5.10327 2.72666 5.4971 2.34063C5.89092 1.95461 6.42506 1.73774 6.98202 1.73774H7.58202C8.13897 1.73774 8.67312 1.95461 9.06694 2.34063C9.46077 2.72666 9.68202 3.25021 9.68202 3.79613V5.26641H4.88202V3.79613ZM11.482 12.3237H3.08202V6.44263H11.482V12.3237Z" fill="#8F92A1"/>
<path d="M7.28202 10.2653C7.77908 10.2653 8.18202 9.87035 8.18202 9.38314C8.18202 8.89594 7.77908 8.50098 7.28202 8.50098C6.78496 8.50098 6.38202 8.89594 6.38202 9.38314C6.38202 9.87035 6.78496 10.2653 7.28202 10.2653Z" fill="#8F92A1"/>
</g>
<defs>
<clipPath id="clip0_5572_293">
<rect width="13.5" height="13.5" fill="white" transform="translate(0.475769)"/>
</clipPath>
</defs>
</svg>
