<svg width="35" height="35" viewBox="0 0 35 35" fill="none" xmlns="http://www.w3.org/2000/svg">
<path d="M17.1557 33.507C16.4289 33.4937 15.7144 33.3184 15.0657 32.9943C13.7781 32.3875 12.5723 31.6241 11.4762 30.7219C9.95762 29.487 8.60613 28.0642 7.45497 26.4885C5.99859 24.4915 4.82849 22.3051 3.9779 19.9914C2.91574 17.0702 2.25789 14.0205 2.02222 10.9251C1.9364 9.89437 2.09781 9.10893 2.53045 8.45294C2.95596 7.80729 3.64391 7.2897 4.69485 6.82402C8.86391 5.13449 11.1343 4.16155 12.6367 3.51873C13.6686 3.07678 14.2912 2.81011 14.8926 2.58385L15.1337 2.4934H15.1353C15.8568 2.2171 16.4264 2 17.1153 2C17.8768 2.03459 18.6214 2.2339 19.2965 2.58385C20.6422 3.20436 23.4485 4.30252 25.7032 5.1843C26.9747 5.68169 28.072 6.11095 28.6071 6.33744C28.7082 6.3802 28.8087 6.42179 28.9162 6.46596C29.6179 6.75659 30.4138 7.08623 31.01 7.63625C31.6943 8.26733 32.0131 9.09295 31.9846 10.1606C32.041 11.6064 31.9425 13.0541 31.691 14.4794C31.3431 16.6007 30.7662 18.6789 29.9702 20.6786C29.0351 23.0526 27.7468 25.2755 26.148 27.2737C24.338 29.5222 22.0961 31.3948 19.5511 32.7836C19.4991 32.8099 19.4425 32.8397 19.3826 32.8714C18.709 33.2716 17.9413 33.4907 17.1557 33.507ZM17.0035 5.89784V29.533C17.5311 29.2824 18.0401 28.9951 18.5266 28.6733C19.781 27.8551 20.9378 26.8993 21.9749 25.8241C24.3168 23.4041 27.2493 19.1313 27.9199 12.5298V10.3918C24.9739 9.2788 17.0829 5.93238 17.0035 5.89878V5.89784Z" fill="#A678EC"/>
</svg>
