<svg width="14" height="14" viewBox="0 0 14 14" fill="none" xmlns="http://www.w3.org/2000/svg">
<path d="M13.9559 5.27506C13.8515 4.96416 13.5824 4.73749 13.2584 4.68793L9.48736 4.11169L7.79352 0.50335C7.64908 0.195784 7.3404 0 7.00128 0C6.66193 0 6.35348 0.195784 6.20903 0.50335L4.51497 4.11191L0.743964 4.68815C0.419954 4.73771 0.150834 4.96416 0.0466083 5.27528C-0.0576173 5.5864 0.0210519 5.92908 0.25017 6.1642L3.00404 8.98807L2.35179 12.9831C2.29801 13.3138 2.43824 13.6462 2.7118 13.8396C2.98515 14.0329 3.34605 14.0525 3.64006 13.8902L7.0015 12.0313L10.3629 13.8902C10.4956 13.9636 10.6416 13.9996 10.787 13.9996C10.9638 13.9996 11.1407 13.9458 11.2912 13.8396C11.5648 13.6464 11.7048 13.314 11.651 12.9831L10.9987 8.98807L13.7528 6.1642C13.9815 5.92908 14.0602 5.5864 13.9559 5.27506Z" fill="white"/>
</svg>
