<svg width="36" height="35" viewBox="0 0 36 35" fill="none" xmlns="http://www.w3.org/2000/svg">
<path d="M13.8828 25.9465C11.0423 25.6895 5.76702 24.404 3.80562 19.5836C3.26489 16.6271 2.72417 13.8634 2.45301 12.128C1.97956 9.49278 3.17043 8.54606 5.91811 7.5005C8.67501 6.60063 10.3681 6.10051 13.8827 6.02222C15.7776 6.02222 18.6169 5.70106 19.4967 7.5005C17.4001 7.5005 15.3711 7.82181 14.5595 8.85015C13.0716 8.85015 9.82532 8.72153 5.29388 10.9712C5.66952 12.9511 6.13916 15.1441 6.53755 17.0658C6.90922 18.8595 6.84942 19.8407 8.47271 21.1263C11.0427 22.6045 12.1924 22.9259 12.1924 22.9259C12.1924 22.9259 12.3949 24.0827 13.8828 25.9465Z" fill="#A678EC"/>
<path d="M9.28397 20.0979C9.35156 18.1697 10.9071 17.0771 11.9892 16.8843C11.8909 17.5547 11.7554 18.2198 11.5833 18.8767C10.7521 19.1623 9.97549 19.5748 9.28397 20.0979Z" fill="#A678EC"/>
<path d="M10.9239 12.3848C12.1919 13.4125 10.7967 14.9889 9.75724 15.0842C8.88254 15.1701 7.52532 14.7629 7.72825 13.0276C9.08102 13.5417 10.3999 13.3487 10.9239 12.3848Z" fill="#A678EC"/>
<path d="M21.2783 28.6872C20.198 28.6744 19.1399 28.3935 18.2089 27.8723C17.2469 27.34 16.3892 26.6534 15.6739 25.8428C15.2242 25.3443 14.8196 24.8107 14.4643 24.2476C14.1252 23.7137 13.8338 23.1537 13.5932 22.5736C13.1287 21.4444 12.9432 20.3823 13.0713 19.583C13.6419 15.9227 14.0686 13.8154 14.4231 12.1275C14.5054 11.6894 14.6327 11.26 14.8032 10.8455C14.97 10.4469 15.2289 10.0891 15.5608 9.79843C15.9709 9.46132 16.4578 9.21956 16.9832 9.09232C17.7587 8.90286 18.5579 8.8157 19.3583 8.83327C19.5956 8.83327 19.8469 8.83871 20.1058 8.84959C21.7894 8.84955 23.4684 9.01671 25.1154 9.34834C26.7776 9.67271 28.3898 10.1964 29.9131 10.9069C30.415 11.1313 31.1429 11.5014 31.6665 12.12C31.9309 12.4306 32.1244 12.7901 32.2347 13.1756C32.3622 13.6524 32.3858 14.149 32.3041 14.6348C31.9372 17.0754 31.3756 19.8326 30.9276 21.9618C30.6609 23.6092 29.4953 25.2919 27.7298 26.5781C26.8322 27.2312 25.8326 27.7468 24.7673 28.1063C23.648 28.4886 22.4678 28.6852 21.2783 28.6872ZM17.1071 19.5707C17.1389 23.0015 19.9886 24.544 22.0016 24.544C24.3387 24.544 26.4693 23.1233 26.9579 21.2381C26.3142 21.4724 25.6509 21.6546 24.975 21.7827C24.3957 21.8912 23.8068 21.9469 23.2164 21.9489C22.0122 21.9506 20.8232 21.6927 19.739 21.1946C18.8001 20.7493 17.9172 20.2046 17.1071 19.5707ZM25.2264 16.9158C25.8035 16.9011 26.3737 17.0379 26.8742 17.3113C27.0309 17.391 27.1924 17.4616 27.358 17.5229C27.5185 16.7672 27.411 16.1436 27.0468 15.7206C26.8908 15.5455 26.6952 15.4061 26.4746 15.3129C26.2541 15.2196 26.0142 15.1748 25.7729 15.1819C25.2344 15.1834 24.7183 15.387 24.3369 15.7484C24.1613 15.9211 24.0247 16.1261 23.9355 16.3508C23.8463 16.5755 23.8064 16.8152 23.8182 17.0551C24.2824 16.9694 24.7536 16.9228 25.2264 16.9158ZM19.1977 15.8178C19.6842 15.8105 20.1667 15.9019 20.6131 16.0857C20.919 16.221 21.2073 16.3899 21.4719 16.5889L21.5102 16.6161C21.6693 15.7029 21.3717 15.1295 21.0945 14.8094C20.9469 14.6351 20.7624 14.4923 20.5529 14.3903C20.3434 14.2883 20.1137 14.2293 19.8787 14.2172C19.8609 14.2172 19.8427 14.2165 19.8251 14.2165C18.8788 14.2165 18.055 14.9722 17.9087 15.973C18.3307 15.8746 18.7632 15.8225 19.1977 15.8178Z" fill="#A678EC"/>
</svg>
