<svg width="14" height="14" viewBox="0 0 14 14" fill="none" xmlns="http://www.w3.org/2000/svg">
<path fill-rule="evenodd" clip-rule="evenodd" d="M3.74033 3.9128C3.74033 2.20918 5.12139 0.828125 6.82501 0.828125C8.52863 0.828125 9.90969 2.20918 9.90969 3.9128C9.90969 5.61642 8.52863 6.99748 6.82501 6.99748C5.12139 6.99748 3.74033 5.61642 3.74033 3.9128ZM6.82501 1.91683C5.72267 1.91683 4.82904 2.81046 4.82904 3.9128C4.82904 5.01514 5.72267 5.90877 6.82501 5.90877C7.92735 5.90877 8.82098 5.01514 8.82098 3.9128C8.82098 2.81046 7.92735 1.91683 6.82501 1.91683Z" fill="#8F92A1"/>
<path fill-rule="evenodd" clip-rule="evenodd" d="M3.92179 9.1749C3.01987 9.1749 2.28872 9.90605 2.28872 10.808V11.6704C2.28872 11.6836 2.29824 11.6948 2.3112 11.6969C5.30062 12.1849 8.34941 12.1849 11.3388 11.6969C11.3518 11.6948 11.3613 11.6836 11.3613 11.6704V10.808C11.3613 9.90605 10.6302 9.1749 9.72824 9.1749H9.48083C9.4617 9.1749 9.44269 9.17792 9.42451 9.18386L8.79631 9.38899C7.51539 9.80725 6.13463 9.80725 4.85371 9.38899L4.22551 9.18386C4.20733 9.17792 4.18832 9.1749 4.16919 9.1749H3.92179ZM1.20001 10.808C1.20001 9.30477 2.41859 8.08619 3.92179 8.08619H4.16919C4.3031 8.08619 4.43616 8.10736 4.56345 8.14893L5.19165 8.35405C6.25298 8.70061 7.39704 8.70061 8.45838 8.35405L9.08657 8.14893C9.21386 8.10736 9.34693 8.08619 9.48083 8.08619H9.72824C11.2314 8.08619 12.45 9.30477 12.45 10.808V11.6704C12.45 12.2171 12.0538 12.6833 11.5143 12.7714C8.40865 13.2784 5.24137 13.2784 2.13577 12.7714C1.59622 12.6833 1.20001 12.2171 1.20001 11.6704V10.808Z" fill="#8F92A1"/>
</svg>
