<svg width="35" height="35" viewBox="0 0 35 35" fill="none" xmlns="http://www.w3.org/2000/svg">
<path d="M17.465 17.79C21.0836 17.79 24.0164 14.9272 24.0164 11.395C24.0164 7.86275 21.0836 5 17.465 5C13.8464 5 10.9136 7.86275 10.9136 11.395C10.9136 14.9272 13.8464 17.79 17.465 17.79ZM22.051 19.3887H21.1962C20.06 19.8983 18.7958 20.1881 17.465 20.1881C16.1342 20.1881 14.8751 19.8983 13.7338 19.3887H12.879C9.08122 19.3887 6 22.3963 6 26.1034V28.1818C6 29.5057 7.10044 30.5799 8.45679 30.5799H26.4732C27.8296 30.5799 28.93 29.5057 28.93 28.1818V26.1034C28.93 22.3963 25.8488 19.3887 22.051 19.3887Z" fill="#A678EC"/>
</svg>
