<svg width="36" height="35" viewBox="0 0 36 35" fill="none" xmlns="http://www.w3.org/2000/svg">
<path d="M17.6012 1.94032C14.1297 1.94258 10.7657 3.14476 8.07906 5.34322C5.39243 7.54168 3.54833 10.6013 2.85917 14.0037C2.17 17.4061 2.67814 20.9421 4.2975 24.0127C5.91686 27.0834 8.54788 29.4999 11.7449 30.8529C15.4163 32.3747 19.5407 32.3826 23.218 30.8749C26.8953 29.3672 29.827 26.4663 31.3735 22.8051C32.9199 19.1439 32.9555 15.0197 31.4725 11.3324C29.9895 7.64503 27.1082 4.69391 23.4575 3.12297C21.6048 2.33882 19.613 1.93657 17.6012 1.94032ZM24.2237 24.5561C23.9076 24.5577 23.5966 24.4759 23.3223 24.3188C23.2102 24.268 22.9835 24.163 22.6697 24.0178C21.1107 23.2966 17.4607 21.6078 15.4199 20.7765C14.2531 20.1399 13.965 19.4477 13.6305 18.6463C13.5829 18.5318 13.5337 18.4139 13.4812 18.2939C13.0603 17.3313 11.1674 13.3022 10.272 11.4819C10.1134 11.1811 10.0119 10.8535 9.97272 10.5158C9.94422 10.2848 9.99153 10.0509 10.1075 9.8492C10.2117 9.70357 10.3518 9.58746 10.5143 9.51225C10.6768 9.43704 10.856 9.40531 11.0344 9.42015C11.4213 9.43192 11.8012 9.52577 12.1491 9.69548C12.5092 9.8612 13.067 10.116 13.7126 10.411L13.7159 10.4125C15.7634 11.3479 18.8577 12.7621 19.6879 13.178C20.8075 13.7378 21.1561 14.1804 21.4743 14.9037C21.5217 15.0115 21.604 15.2008 21.7085 15.4406C22.3747 16.9711 23.9348 20.5555 24.8958 22.5033C25.0645 22.8203 25.1762 23.1644 25.2258 23.5201C25.2581 23.74 25.2163 23.9645 25.107 24.1581C25.0065 24.2949 24.8724 24.4034 24.7176 24.4731C24.5629 24.5429 24.3927 24.5714 24.2237 24.5561Z" fill="#A678EC"/>
<path d="M17.6134 14.9287C18.7364 14.9287 19.6468 15.8391 19.6468 16.9622C19.6468 18.0852 18.7364 18.9956 17.6134 18.9956C16.4903 18.9956 15.5799 18.0852 15.5799 16.9622C15.5799 15.8391 16.4903 14.9287 17.6134 14.9287Z" fill="#A678EC"/>
</svg>
