<svg width="271" height="255" viewBox="0 0 271 255" fill="none" xmlns="http://www.w3.org/2000/svg">
<g filter="url(#filter0_d_36270_715)">
<path fill-rule="evenodd" clip-rule="evenodd" d="M35.332 10.6772C27.0478 10.6772 20.332 17.393 20.332 25.6772V162.677C20.332 170.962 27.0478 177.677 35.332 177.677H85.2059C87.1636 203.658 108.864 224.128 135.345 224.128C161.826 224.128 183.526 203.658 185.484 177.677H235.518C243.802 177.677 250.518 170.962 250.518 162.677V25.6772C250.518 17.393 243.802 10.6772 235.518 10.6772H35.332Z" fill="white"/>
</g>
<circle cx="135.346" cy="173.846" r="41.903" fill="#E8FFEE"/>
<path d="M135.224 199.448C133.236 199.451 131.33 198.653 129.936 197.235L106.671 173.628C104.81 171.739 104.097 169.001 104.802 166.444C105.507 163.888 107.523 161.901 110.089 161.234C112.656 160.566 115.384 161.318 117.245 163.207L135.486 181.717L180.373 140.596C183.4 137.853 188.073 138.07 190.832 141.082C193.591 144.094 193.399 148.769 190.401 151.543L140.236 197.499C138.869 198.754 137.08 199.45 135.224 199.448Z" fill="#41D0B6"/>
<rect x="39.6484" y="93.0732" width="30.489" height="30.489" rx="8" fill="#E8FFEE"/>
<path d="M56.0018 115.771C55.1885 115.772 54.409 115.446 53.8388 114.866L44.3228 105.21C43.1458 104.016 43.1599 102.094 44.3543 100.917C45.5486 99.7399 47.4708 99.754 48.6478 100.948L56.1088 108.519L74.4688 91.7003C75.2642 90.9411 76.4079 90.6714 77.4588 90.9951C78.5096 91.3189 79.3033 92.1855 79.5336 93.2607C79.7639 94.3359 79.3948 95.4515 78.5688 96.1773L58.0498 114.977C57.4907 115.489 56.7598 115.773 56.0018 115.771Z" fill="#41D0B6"/>
<rect x="39.6484" y="39.1183" width="30.489" height="30.489" rx="8" fill="#E8FFEE"/>
<path d="M56.0018 61.8143C55.1893 61.8165 54.4099 61.4923 53.8388 60.9143L44.3228 51.2583C43.5615 50.4857 43.2702 49.3656 43.5586 48.32C43.847 47.2744 44.6713 46.462 45.7211 46.189C46.7708 45.916 47.8865 46.2237 48.6478 46.9963L56.1088 54.5663L74.4688 37.7473C75.2643 36.9881 76.408 36.7184 77.4589 37.0421C78.5097 37.3659 79.3033 38.2325 79.5336 39.3077C79.7639 40.3829 79.3949 41.4985 78.5688 42.2243L58.0498 61.0243C57.4902 61.5348 56.7593 61.8167 56.0018 61.8143Z" fill="#41D0B6"/>
<rect x="89.1328" y="42.6302" width="123.554" height="6.752" rx="3.376" fill="#CAE4F1"/>
<rect x="89.1328" y="58.4402" width="77.341" height="6.752" rx="3.376" fill="#CAE4F1"/>
<rect x="89.1328" y="97.0372" width="123.554" height="6.752" rx="3.376" fill="#CAE4F1"/>
<rect x="89.1328" y="112.847" width="77.341" height="6.752" rx="3.376" fill="#CAE4F1"/>
<defs>
<filter id="filter0_d_36270_715" x="0.332031" y="0.677246" width="270.186" height="253.451" filterUnits="userSpaceOnUse" color-interpolation-filters="sRGB">
<feFlood flood-opacity="0" result="BackgroundImageFix"/>
<feColorMatrix in="SourceAlpha" type="matrix" values="0 0 0 0 0 0 0 0 0 0 0 0 0 0 0 0 0 0 127 0" result="hardAlpha"/>
<feOffset dy="10"/>
<feGaussianBlur stdDeviation="10"/>
<feColorMatrix type="matrix" values="0 0 0 0 0.286275 0 0 0 0 0.341176 0 0 0 0 0.721569 0 0 0 0.1 0"/>
<feBlend mode="normal" in2="BackgroundImageFix" result="effect1_dropShadow_36270_715"/>
<feBlend mode="normal" in="SourceGraphic" in2="effect1_dropShadow_36270_715" result="shape"/>
</filter>
</defs>
</svg>
