<svg width="19" height="20" viewBox="0 0 19 20" fill="none" xmlns="http://www.w3.org/2000/svg">
<path fill-rule="evenodd" clip-rule="evenodd" d="M9.53472 19.6813C14.6005 19.6813 18.7071 15.5746 18.7071 10.5088C18.7071 5.44305 14.6005 1.33643 9.53472 1.33643C4.46893 1.33643 0.362305 5.44305 0.362305 10.5088C0.362305 12.1539 0.795374 13.6978 1.55372 15.0328L0.362305 19.6813L5.1548 18.57C6.45633 19.2786 7.94848 19.6813 9.53472 19.6813ZM9.53472 18.2701C13.8212 18.2701 17.296 14.7953 17.296 10.5088C17.296 6.22244 13.8212 2.74757 9.53472 2.74757C5.24829 2.74757 1.77345 6.22244 1.77345 10.5088C1.77345 12.1639 2.29146 13.6979 3.1742 14.9576L2.47902 17.5645L5.13191 16.9013C6.38295 17.7646 7.8998 18.2701 9.53472 18.2701Z" fill="#BFC8D0"/>
<path d="M17.397 9.85377C17.397 14.1959 13.877 17.7158 9.53492 17.7158C7.87878 17.7158 6.3422 17.2038 5.07494 16.3293L2.38759 17.0011L3.0918 14.3603C2.19759 13.0842 1.67285 11.5303 1.67285 9.85377C1.67285 5.51167 5.19282 1.9917 9.53492 1.9917C13.877 1.9917 17.397 5.51167 17.397 9.85377Z" fill="url(#paint0_linear_6295_19)"/>
<path fill-rule="evenodd" clip-rule="evenodd" d="M9.53472 19.026C14.6005 19.026 18.7071 14.9194 18.7071 9.85357C18.7071 4.78778 14.6005 0.681152 9.53472 0.681152C4.46893 0.681152 0.362305 4.78778 0.362305 9.85357C0.362305 11.4986 0.795374 13.0426 1.55372 14.3775L0.362305 19.026L5.1548 17.9147C6.45633 18.6233 7.94848 19.026 9.53472 19.026ZM9.53472 17.6149C13.8212 17.6149 17.296 14.14 17.296 9.85357C17.296 5.56713 13.8212 2.0923 9.53472 2.0923C5.24829 2.0923 1.77345 5.56713 1.77345 9.85357C1.77345 11.5086 2.29146 13.0426 3.1742 14.3023L2.47902 16.9092L5.13191 16.246C6.38295 17.1093 7.8998 17.6149 9.53472 17.6149Z" fill="white"/>
<path d="M7.24111 5.59496C7.02307 5.15692 6.68847 5.1957 6.35053 5.1957C5.74653 5.1957 4.80469 5.9192 4.80469 7.26572C4.80469 8.36923 5.29096 9.57717 6.92951 11.3842C8.51083 13.1281 10.5886 14.0302 12.3136 13.9995C14.0385 13.9689 14.3934 12.4844 14.3934 11.9832C14.3934 11.761 14.2555 11.6501 14.1606 11.62C13.5728 11.3379 12.4886 10.8122 12.2419 10.7135C11.9952 10.6148 11.8664 10.7484 11.7864 10.821C11.5627 11.0341 11.1193 11.6624 10.9674 11.8038C10.8156 11.9451 10.5892 11.8735 10.495 11.8201C10.1484 11.6811 9.20853 11.263 8.4594 10.5367C7.53286 9.63862 7.47848 9.32958 7.30394 9.05454C7.16432 8.83446 7.26679 8.6995 7.3179 8.64047C7.51753 8.41017 7.79316 8.05455 7.91679 7.87785C8.04035 7.70108 7.94227 7.43279 7.88337 7.26572C7.63015 6.54699 7.41558 5.94535 7.24111 5.59496Z" fill="white"/>
<defs>
<linearGradient id="paint0_linear_6295_19" x1="16.4142" y1="3.95722" x2="1.67285" y2="17.7158" gradientUnits="userSpaceOnUse">
<stop stop-color="#5BD066"/>
<stop offset="1" stop-color="#27B43E"/>
</linearGradient>
</defs>
</svg>
