<svg width="35" height="35" viewBox="0 0 35 35" fill="none" xmlns="http://www.w3.org/2000/svg">
<path d="M20.2334 15.7775H19.1335C18.9943 15.3464 18.8189 14.9277 18.6092 14.5257L19.3882 13.7526C19.5205 13.6213 19.6254 13.4654 19.697 13.2938C19.7686 13.1222 19.8055 12.9383 19.8055 12.7526C19.8055 12.5669 19.7686 12.383 19.697 12.2115C19.6254 12.0399 19.5205 11.884 19.3882 11.7527L17.8773 10.253C17.745 10.1217 17.5879 10.0176 17.4151 9.94649C17.2422 9.87542 17.0569 9.83884 16.8698 9.83884C16.6827 9.83884 16.4975 9.87542 16.3246 9.94649C16.1518 10.0176 15.9947 10.1217 15.8624 10.253L15.0835 11.0262C14.6784 10.8181 14.2566 10.644 13.8222 10.5058V9.41426C13.8223 9.22855 13.7854 9.04465 13.7138 8.87306C13.6423 8.70148 13.5373 8.54557 13.405 8.41424C13.2727 8.28291 13.1157 8.17873 12.9428 8.10766C12.7699 8.03658 12.5847 8 12.3975 8H10.2612C9.8833 8 9.52093 8.14898 9.25375 8.41417C8.98656 8.67937 8.83646 9.03904 8.83646 9.41408V10.5057C8.40214 10.6438 7.98026 10.8179 7.57525 11.026L6.79612 10.253C6.66382 10.1217 6.50676 10.0176 6.3339 9.94649C6.16104 9.87542 5.97577 9.83884 5.78867 9.83884C5.60157 9.83884 5.4163 9.87542 5.24344 9.94649C5.07058 10.0176 4.91352 10.1217 4.78122 10.253L3.27033 11.7527C3.13803 11.884 3.03307 12.0399 2.96147 12.2115C2.88987 12.383 2.85301 12.5669 2.85301 12.7526C2.85301 12.9383 2.88987 13.1222 2.96147 13.2938C3.03307 13.4654 3.13803 13.6213 3.27033 13.7526L4.04928 14.5257C3.83946 14.9277 3.66397 15.3464 3.52466 15.7775H2.42469C2.04684 15.7775 1.68446 15.9265 1.41728 16.1917C1.1501 16.4569 1 16.8166 1 17.1916V19.3121C1 19.6871 1.1501 20.0468 1.41728 20.312C1.68446 20.5772 2.04684 20.7262 2.42469 20.7262H3.52447C3.66366 21.1572 3.83902 21.576 4.04872 21.978L3.26996 22.7511C3.13765 22.8824 3.0327 23.0383 2.9611 23.2099C2.88949 23.3815 2.85264 23.5654 2.85264 23.7511C2.85264 23.9368 2.88949 24.1207 2.9611 24.2922C3.0327 24.4638 3.13765 24.6197 3.26996 24.751L4.78085 26.2506C4.91315 26.382 5.07021 26.4861 5.24307 26.5572C5.41593 26.6283 5.6012 26.6649 5.7883 26.6649C5.9754 26.6649 6.16067 26.6283 6.33353 26.5572C6.50639 26.4861 6.66345 26.382 6.79575 26.2506L7.57469 25.4775C7.9797 25.6856 8.40159 25.8597 8.83591 25.9978V27.0896C8.83591 27.4646 8.98601 27.8243 9.25319 28.0895C9.52037 28.3547 9.88275 28.5037 10.2606 28.5037H12.397C12.7748 28.5037 13.1372 28.3547 13.4044 28.0895C13.6716 27.8243 13.8217 27.4646 13.8217 27.0896V25.9978C14.256 25.8597 14.6779 25.6856 15.0829 25.4775L15.8618 26.2512C15.9941 26.3825 16.1512 26.4867 16.3241 26.5578C16.4969 26.6288 16.6822 26.6654 16.8693 26.6654C17.0564 26.6654 17.2417 26.6288 17.4145 26.5578C17.5874 26.4867 17.7444 26.3825 17.8767 26.2512L19.3876 24.7516C19.5199 24.6202 19.6249 24.4644 19.6965 24.2928C19.7681 24.1212 19.8049 23.9373 19.8049 23.7516C19.8049 23.5659 19.7681 23.382 19.6965 23.2104C19.6249 23.0389 19.5199 22.883 19.3876 22.7517L18.6092 21.9785C18.8189 21.5765 18.9943 21.1578 19.1335 20.7267H20.2333C20.6111 20.7267 20.9735 20.5777 21.2407 20.3125C21.5079 20.0473 21.658 19.6877 21.658 19.3126V17.1922C21.658 17.0064 21.6212 16.8225 21.5497 16.6509C21.4781 16.4793 21.3732 16.3233 21.2409 16.192C21.1087 16.0606 20.9516 15.9564 20.7787 15.8853C20.6059 15.8142 20.4206 15.7776 20.2334 15.7775ZM11.329 22.4945C10.4837 22.4944 9.65734 22.2456 8.9545 21.7794C8.25166 21.3133 7.70387 20.6507 7.38039 19.8756C7.05692 19.1004 6.9723 18.2474 7.13722 17.4245C7.30214 16.6017 7.7092 15.8458 8.30693 15.2525C8.90466 14.6592 9.66621 14.2552 10.4953 14.0915C11.3244 13.9278 12.1837 14.0118 12.9647 14.3329C13.7457 14.6539 14.4132 15.1976 14.8829 15.8952C15.3525 16.5928 15.6032 17.413 15.6032 18.252C15.6033 18.8092 15.4927 19.3608 15.2779 19.8756C15.0631 20.3903 14.7483 20.858 14.3514 21.2519C13.9545 21.6459 13.4833 21.9584 12.9647 22.1716C12.4461 22.3848 11.8903 22.4945 11.329 22.4945Z" fill="#A678EC"/>
<path d="M29.0495 7.76227L28.568 8.03821C28.3972 7.88441 28.2138 7.7451 28.0196 7.62173L28.1637 7.08775C28.1882 6.99707 28.1945 6.90249 28.1821 6.80941C28.1698 6.71633 28.1391 6.62658 28.0918 6.54527C28.0445 6.46397 27.9815 6.39271 27.9065 6.33556C27.8315 6.27841 27.7458 6.23649 27.6544 6.21219L26.6113 5.9349C26.5199 5.9106 26.4246 5.90439 26.3309 5.91665C26.2371 5.9289 26.1467 5.95937 26.0647 6.00631C25.9828 6.05325 25.911 6.11574 25.8535 6.19022C25.7959 6.26471 25.7536 6.34971 25.7292 6.4404L25.585 6.97438C25.3547 6.98483 25.1258 7.01441 24.9005 7.06283L24.6225 6.58505C24.527 6.42086 24.3697 6.30104 24.1852 6.25197C24.0007 6.2029 23.8041 6.22859 23.6387 6.32339L22.7035 6.85932C22.538 6.95411 22.4173 7.11026 22.3679 7.29339C22.3184 7.47653 22.3443 7.67166 22.4398 7.83585L22.7177 8.31363C22.5628 8.48334 22.4225 8.66565 22.2984 8.85865L21.7604 8.71557C21.669 8.69127 21.5737 8.68507 21.4799 8.69732C21.3862 8.70957 21.2957 8.74004 21.2138 8.78698C21.1319 8.83392 21.0601 8.89642 21.0025 8.9709C20.9449 9.04538 20.9027 9.13039 20.8782 9.22107L20.5984 10.2561C20.5739 10.3468 20.5677 10.4413 20.58 10.5344C20.5924 10.6275 20.6231 10.7172 20.6704 10.7985C20.7177 10.8798 20.7806 10.9511 20.8557 11.0083C20.9307 11.0654 21.0163 11.1073 21.1077 11.1316L21.6457 11.2747C21.6562 11.5033 21.6861 11.7306 21.7349 11.9543L21.2535 12.2302C21.0881 12.325 20.9674 12.4811 20.918 12.6642C20.8685 12.8474 20.8944 13.0425 20.9899 13.2067L21.5301 14.1353C21.6256 14.2994 21.7829 14.4191 21.9674 14.4681C22.1518 14.5171 22.3484 14.4914 22.5137 14.3966L22.9951 14.1208C23.166 14.2744 23.3497 14.4135 23.544 14.5367L23.3999 15.0707C23.3754 15.1614 23.3691 15.256 23.3815 15.349C23.3938 15.4421 23.4245 15.5319 23.4718 15.6132C23.5191 15.6945 23.5821 15.7657 23.6571 15.8229C23.7322 15.88 23.8178 15.922 23.9092 15.9463L24.9524 16.2237C25.0438 16.248 25.1391 16.2542 25.2328 16.242C25.3266 16.2297 25.417 16.1992 25.499 16.1523C25.5809 16.1054 25.6527 16.0429 25.7102 15.9684C25.7678 15.8939 25.8101 15.8089 25.8345 15.7182L25.9787 15.1842C26.209 15.1738 26.4381 15.1441 26.6634 15.0957L26.9414 15.5736C27.0369 15.7377 27.1941 15.8574 27.3785 15.9065C27.5628 15.9556 27.7593 15.93 27.9247 15.8354L28.8602 15.2993C29.0257 15.2045 29.1464 15.0483 29.1958 14.8652C29.2453 14.6821 29.2194 14.4869 29.1239 14.3228L28.846 13.845C29.0009 13.6755 29.1413 13.4934 29.2656 13.3007L29.8036 13.4438C29.8949 13.4681 29.9902 13.4743 30.084 13.462C30.1778 13.4498 30.2682 13.4193 30.3501 13.3724C30.432 13.3254 30.5038 13.2629 30.5614 13.1884C30.619 13.114 30.6612 13.029 30.6857 12.9383L30.9652 11.9028C30.9897 11.8121 30.9959 11.7175 30.9836 11.6244C30.9713 11.5314 30.9406 11.4416 30.8933 11.3603C30.846 11.279 30.783 11.2078 30.708 11.1506C30.6329 11.0934 30.5473 11.0515 30.4559 11.0272L29.9179 10.8842C29.9074 10.6555 29.8775 10.4282 29.8287 10.2045L30.3102 9.92861C30.3922 9.88167 30.464 9.81918 30.5215 9.7447C30.5791 9.67022 30.6213 9.58521 30.6458 9.49453C30.6703 9.40385 30.6766 9.30928 30.6642 9.2162C30.6519 9.12312 30.6212 9.03337 30.5739 8.95207L30.034 8.02398C29.9867 7.94259 29.9237 7.87124 29.8487 7.81403C29.7736 7.75682 29.6878 7.71486 29.5964 7.69056C29.505 7.66625 29.4096 7.66007 29.3158 7.67238C29.2219 7.68469 29.1314 7.71523 29.0495 7.76227ZM26.8618 12.9365C26.4918 13.1486 26.0667 13.247 25.6403 13.2192C25.2139 13.1915 24.8053 13.0389 24.4663 12.7807C24.1273 12.5225 23.873 12.1703 23.7357 11.7687C23.5983 11.367 23.584 10.934 23.6946 10.5243C23.8052 10.1147 24.0357 9.74673 24.357 9.46708C24.6783 9.18743 25.0759 9.00862 25.4996 8.95326C25.9232 8.8979 26.3539 8.96848 26.7371 9.15607C27.1204 9.34366 27.439 9.63983 27.6526 10.0071C27.9391 10.4997 28.0168 11.085 27.8685 11.6344C27.7202 12.1837 27.3581 12.6521 26.8618 12.9365Z" fill="#A678EC"/>
<path d="M29.8039 21.827L29.2921 22.0427C29.1415 21.8694 28.9766 21.7089 28.799 21.563L29.0076 21.0504C29.0431 20.9634 29.0609 20.8702 29.06 20.7764C29.0592 20.6825 29.0398 20.5897 29.0028 20.5033C28.9659 20.4168 28.9121 20.3385 28.8447 20.2727C28.7772 20.2069 28.6973 20.1549 28.6096 20.1198L27.6083 19.7184C27.5206 19.6832 27.4268 19.6655 27.3322 19.6663C27.2376 19.6671 27.1441 19.6864 27.0571 19.7231C26.97 19.7598 26.8911 19.8132 26.8248 19.8801C26.7585 19.9471 26.7061 20.0263 26.6707 20.1134L26.462 20.626C26.2322 20.6085 26.0013 20.6101 25.7717 20.6309L25.5545 20.1231C25.4799 19.9486 25.3385 19.8106 25.1614 19.7396C24.9843 19.6686 24.786 19.6703 24.6101 19.7444L23.6161 20.1632C23.4403 20.2373 23.3013 20.3776 23.2297 20.5534C23.1582 20.7292 23.1599 20.926 23.2345 21.1006L23.4517 21.6084C23.2771 21.7581 23.1155 21.9221 22.9685 22.0986L22.4521 21.8915C22.3644 21.8564 22.2706 21.8387 22.176 21.8395C22.0814 21.8403 21.9879 21.8596 21.9009 21.8963C21.8138 21.933 21.7349 21.9863 21.6686 22.0533C21.6023 22.1202 21.5499 22.1995 21.5145 22.2866L21.1097 23.28C21.0742 23.367 21.0564 23.4602 21.0572 23.554C21.0581 23.6479 21.0775 23.7407 21.1145 23.8271C21.1514 23.9135 21.2052 23.9919 21.2726 24.0577C21.3401 24.1235 21.42 24.1755 21.5077 24.2106L22.0241 24.4177C22.0065 24.6459 22.0082 24.8751 22.0292 25.103L21.5175 25.3186C21.3417 25.3927 21.2027 25.5331 21.1312 25.7089C21.0596 25.8846 21.0613 26.0815 21.136 26.256L21.5581 27.243C21.6328 27.4174 21.7742 27.5552 21.9513 27.6262C22.1283 27.6971 22.3265 27.6954 22.5023 27.6213L23.014 27.4058C23.1648 27.579 23.3299 27.7393 23.5077 27.885L23.2991 28.3976C23.2636 28.4846 23.2458 28.5778 23.2467 28.6716C23.2475 28.7655 23.2669 28.8583 23.3039 28.9447C23.3408 29.0312 23.3946 29.1095 23.462 29.1753C23.5295 29.2411 23.6094 29.2931 23.6971 29.3282L24.6985 29.7298C24.7862 29.765 24.88 29.7827 24.9746 29.7818C25.0692 29.781 25.1627 29.7617 25.2497 29.725C25.3368 29.6884 25.4157 29.635 25.482 29.5681C25.5483 29.5011 25.6007 29.4218 25.6361 29.3348L25.8447 28.8222C26.0746 28.8397 26.3056 28.838 26.5352 28.8172L26.7525 29.3252C26.8271 29.4996 26.9684 29.6374 27.1454 29.7084C27.3224 29.7794 27.5205 29.7778 27.6963 29.7039L28.6907 29.285C28.8665 29.2109 29.0055 29.0705 29.0771 28.8947C29.1486 28.7189 29.1469 28.5221 29.0722 28.3476L28.8551 27.8398C29.0297 27.6903 29.1913 27.5266 29.3384 27.3503L29.8548 27.5574C29.9425 27.5926 30.0363 27.6102 30.1309 27.6094C30.2255 27.6086 30.319 27.5893 30.406 27.5526C30.4931 27.5159 30.572 27.4626 30.6383 27.3956C30.7046 27.3287 30.757 27.2494 30.7924 27.1624L31.197 26.1684C31.2324 26.0814 31.2503 25.9883 31.2494 25.8944C31.2486 25.8005 31.2292 25.7077 31.1922 25.6213C31.1552 25.5349 31.1015 25.4565 31.034 25.3907C30.9666 25.3249 30.8867 25.273 30.799 25.2378L30.2826 25.0307C30.3002 24.8025 30.2985 24.5733 30.2775 24.3454L30.7893 24.1297C30.8764 24.0931 30.9553 24.0397 31.0216 23.9727C31.0879 23.9058 31.1403 23.8265 31.1757 23.7395C31.2111 23.6524 31.2289 23.5593 31.2281 23.4654C31.2273 23.3716 31.2078 23.2788 31.1709 23.1924L30.749 22.2059C30.7121 22.1194 30.6583 22.0409 30.5908 21.9751C30.5233 21.9092 30.4434 21.8572 30.3556 21.822C30.2678 21.7868 30.1739 21.7692 30.0793 21.77C29.9846 21.7709 29.891 21.7903 29.8039 21.827ZM26.9973 26.6981C26.6039 26.8638 26.1699 26.91 25.7501 26.8309C25.3303 26.7518 24.9435 26.5509 24.6388 26.2536C24.334 25.9564 24.1248 25.5761 24.0378 25.1608C23.9508 24.7456 23.9898 24.314 24.1499 23.9208C24.31 23.5275 24.5839 23.1902 24.9371 22.9515C25.2903 22.7128 25.7069 22.5834 26.1342 22.5797C26.5615 22.576 26.9803 22.6982 27.3377 22.9307C27.6951 23.1633 27.9749 23.4958 28.1419 23.8862C28.3658 24.4097 28.371 25.0001 28.1563 25.5274C27.9417 26.0548 27.5247 26.4759 26.9973 26.6981Z" fill="#A678EC"/>
</svg>
